<svg xmlns="http://www.w3.org/2000/svg" width="780" height="390"><text x="390" y="28" text-anchor="middle" font-size="17" font-weight="bold" fill="#1e293b" font-family="Arial">LSD 基數排序法 — 逐步過程</text><text x="158" y="50" text-anchor="middle" font-size="13" font-weight="bold" fill="#64748B" font-family="monospace">第1個</text><text x="234" y="50" text-anchor="middle" font-size="13" font-weight="bold" fill="#64748B" font-family="monospace">第2個</text><text x="310" y="50" text-anchor="middle" font-size="13" font-weight="bold" fill="#64748B" font-family="monospace">第3個</text><text x="386" y="50" text-anchor="middle" font-size="13" font-weight="bold" fill="#64748B" font-family="monospace">第4個</text><text x="462" y="50" text-anchor="middle" font-size="13" font-weight="bold" fill="#64748B" font-family="monospace">第5個</text><text x="538" y="50" text-anchor="middle" font-size="13" font-weight="bold" fill="#64748B" font-family="monospace">第6個</text><text x="614" y="50" text-anchor="middle" font-size="13" font-weight="bold" fill="#64748B" font-family="monospace">第7個</text><text x="690" y="50" text-anchor="middle" font-size="13" font-weight="bold" fill="#64748B" font-family="monospace">第8個</text><text x="766" y="50" text-anchor="middle" font-size="13" font-weight="bold" fill="#64748B" font-family="monospace">第9個</text><rect x="0" y="58" width="780" height="76" fill="#F8FAFC" rx="0"/><text x="10" y="104" font-size="14" font-weight="bold" fill="#334155" font-family="Arial">初始陣列</text><rect x="125" y="77" width="22" height="38" fill="#DBEAFE" stroke="#93C5FD" stroke-width="1.2" rx="3"/><text x="136" y="103" text-anchor="middle" font-size="17" font-weight="bold" fill="#1e40af" font-family="Arial">2</text><rect x="147" y="77" width="22" height="38" fill="#DBEAFE" stroke="#93C5FD" stroke-width="1.2" rx="3"/><text x="158" y="103" text-anchor="middle" font-size="17" font-weight="bold" fill="#1e40af" font-family="Arial">3</text><rect x="169" y="77" width="22" height="38" fill="#DBEAFE" stroke="#93C5FD" stroke-width="1.2" rx="3"/><text x="180" y="103" text-anchor="middle" font-size="17" font-weight="bold" fill="#1e40af" font-family="Arial">2</text><rect x="201" y="77" width="22" height="38" fill="#DBEAFE" stroke="#93C5FD" stroke-width="1.2" rx="3"/><text x="212" y="103" text-anchor="middle" font-size="17" font-weight="bold" fill="#1e40af" font-family="Arial">3</text><rect x="223" y="77" width="22" height="38" fill="#DBEAFE" stroke="#93C5FD" stroke-width="1.2" rx="3"/><text x="234" y="103" text-anchor="middle" font-size="17" font-weight="bold" fill="#1e40af" font-family="Arial">2</text><rect x="245" y="77" width="22" height="38" fill="#DBEAFE" stroke="#93C5FD" stroke-width="1.2" rx="3"/><text x="256" y="103" text-anchor="middle" font-size="17" font-weight="bold" fill="#1e40af" font-family="Arial">1</text><rect x="277" y="77" width="22" height="38" fill="#DBEAFE" stroke="#93C5FD" stroke-width="1.2" rx="3"/><text x="288" y="103" text-anchor="middle" font-size="17" font-weight="bold" fill="#1e40af" font-family="Arial">2</text><rect x="299" y="77" width="22" height="38" fill="#DBEAFE" stroke="#93C5FD" stroke-width="1.2" rx="3"/><text x="310" y="103" text-anchor="middle" font-size="17" font-weight="bold" fill="#1e40af" font-family="Arial">1</text><rect x="321" y="77" width="22" height="38" fill="#DBEAFE" stroke="#93C5FD" stroke-width="1.2" rx="3"/><text x="332" y="103" text-anchor="middle" font-size="17" font-weight="bold" fill="#1e40af" font-family="Arial">3</text><rect x="353" y="77" width="22" height="38" fill="#DBEAFE" stroke="#93C5FD" stroke-width="1.2" rx="3"/><text x="364" y="103" text-anchor="middle" font-size="17" font-weight="bold" fill="#1e40af" font-family="Arial">2</text><rect x="375" y="77" width="22" height="38" fill="#DBEAFE" stroke="#93C5FD" stroke-width="1.2" rx="3"/><text x="386" y="103" text-anchor="middle" font-size="17" font-weight="bold" fill="#1e40af" font-family="Arial">3</text><rect x="397" y="77" width="22" height="38" fill="#DBEAFE" stroke="#93C5FD" stroke-width="1.2" rx="3"/><text x="408" y="103" text-anchor="middle" font-size="17" font-weight="bold" fill="#1e40af" font-family="Arial">1</text><rect x="429" y="77" width="22" height="38" fill="#DBEAFE" stroke="#93C5FD" stroke-width="1.2" rx="3"/><text x="440" y="103" text-anchor="middle" font-size="17" font-weight="bold" fill="#1e40af" font-family="Arial">1</text><rect x="451" y="77" width="22" height="38" fill="#DBEAFE" stroke="#93C5FD" stroke-width="1.2" rx="3"/><text x="462" y="103" text-anchor="middle" font-size="17" font-weight="bold" fill="#1e40af" font-family="Arial">1</text><rect x="473" y="77" width="22" height="38" fill="#DBEAFE" stroke="#93C5FD" stroke-width="1.2" rx="3"/><text x="484" y="103" text-anchor="middle" font-size="17" font-weight="bold" fill="#1e40af" font-family="Arial">1</text><rect x="505" y="77" width="22" height="38" fill="#DBEAFE" stroke="#93C5FD" stroke-width="1.2" rx="3"/><text x="516" y="103" text-anchor="middle" font-size="17" font-weight="bold" fill="#1e40af" font-family="Arial">1</text><rect x="527" y="77" width="22" height="38" fill="#DBEAFE" stroke="#93C5FD" stroke-width="1.2" rx="3"/><text x="538" y="103" text-anchor="middle" font-size="17" font-weight="bold" fill="#1e40af" font-family="Arial">1</text><rect x="549" y="77" width="22" height="38" fill="#DBEAFE" stroke="#93C5FD" stroke-width="1.2" rx="3"/><text x="560" y="103" text-anchor="middle" font-size="17" font-weight="bold" fill="#1e40af" font-family="Arial">2</text><rect x="581" y="77" width="22" height="38" fill="#DBEAFE" stroke="#93C5FD" stroke-width="1.2" rx="3"/><text x="592" y="103" text-anchor="middle" font-size="17" font-weight="bold" fill="#1e40af" font-family="Arial">1</text><rect x="603" y="77" width="22" height="38" fill="#DBEAFE" stroke="#93C5FD" stroke-width="1.2" rx="3"/><text x="614" y="103" text-anchor="middle" font-size="17" font-weight="bold" fill="#1e40af" font-family="Arial">3</text><rect x="625" y="77" width="22" height="38" fill="#DBEAFE" stroke="#93C5FD" stroke-width="1.2" rx="3"/><text x="636" y="103" text-anchor="middle" font-size="17" font-weight="bold" fill="#1e40af" font-family="Arial">2</text><rect x="657" y="77" width="22" height="38" fill="#DBEAFE" stroke="#93C5FD" stroke-width="1.2" rx="3"/><text x="668" y="103" text-anchor="middle" font-size="17" font-weight="bold" fill="#1e40af" font-family="Arial">1</text><rect x="679" y="77" width="22" height="38" fill="#DBEAFE" stroke="#93C5FD" stroke-width="1.2" rx="3"/><text x="690" y="103" text-anchor="middle" font-size="17" font-weight="bold" fill="#1e40af" font-family="Arial">2</text><rect x="701" y="77" width="22" height="38" fill="#DBEAFE" stroke="#93C5FD" stroke-width="1.2" rx="3"/><text x="712" y="103" text-anchor="middle" font-size="17" font-weight="bold" fill="#1e40af" font-family="Arial">3</text><rect x="733" y="77" width="22" height="38" fill="#DBEAFE" stroke="#93C5FD" stroke-width="1.2" rx="3"/><text x="744" y="103" text-anchor="middle" font-size="17" font-weight="bold" fill="#1e40af" font-family="Arial">2</text><rect x="755" y="77" width="22" height="38" fill="#DBEAFE" stroke="#93C5FD" stroke-width="1.2" rx="3"/><text x="766" y="103" text-anchor="middle" font-size="17" font-weight="bold" fill="#1e40af" font-family="Arial">2</text><rect x="777" y="77" width="22" height="38" fill="#DBEAFE" stroke="#93C5FD" stroke-width="1.2" rx="3"/><text x="788" y="103" text-anchor="middle" font-size="17" font-weight="bold" fill="#1e40af" font-family="Arial">1</text><text x="390" y="142" text-anchor="middle" font-size="18" fill="#94A3B8" font-family="Arial">↓</text><rect x="0" y="138" width="780" height="76" fill="#EFF6FF" rx="0"/><text x="10" y="184" font-size="14" font-weight="bold" fill="#334155" font-family="Arial">① 排個位數（橘色）</text><rect x="125" y="157" width="22" height="38" fill="#DBEAFE" stroke="#93C5FD" stroke-width="1.2" rx="3"/><text x="136" y="183" text-anchor="middle" font-size="17" font-weight="bold" fill="#1e40af" font-family="Arial">3</text><rect x="147" y="157" width="22" height="38" fill="#DBEAFE" stroke="#93C5FD" stroke-width="1.2" rx="3"/><text x="158" y="183" text-anchor="middle" font-size="17" font-weight="bold" fill="#1e40af" font-family="Arial">2</text><rect x="169" y="157" width="22" height="38" fill="#F97316" stroke="#93C5FD" stroke-width="1.2" rx="3"/><text x="180" y="183" text-anchor="middle" font-size="17" font-weight="bold" fill="white" font-family="Arial">1</text><rect x="201" y="157" width="22" height="38" fill="#DBEAFE" stroke="#93C5FD" stroke-width="1.2" rx="3"/><text x="212" y="183" text-anchor="middle" font-size="17" font-weight="bold" fill="#1e40af" font-family="Arial">2</text><rect x="223" y="157" width="22" height="38" fill="#DBEAFE" stroke="#93C5FD" stroke-width="1.2" rx="3"/><text x="234" y="183" text-anchor="middle" font-size="17" font-weight="bold" fill="#1e40af" font-family="Arial">3</text><rect x="245" y="157" width="22" height="38" fill="#F97316" stroke="#93C5FD" stroke-width="1.2" rx="3"/><text x="256" y="183" text-anchor="middle" font-size="17" font-weight="bold" fill="white" font-family="Arial">1</text><rect x="277" y="157" width="22" height="38" fill="#DBEAFE" stroke="#93C5FD" stroke-width="1.2" rx="3"/><text x="288" y="183" text-anchor="middle" font-size="17" font-weight="bold" fill="#1e40af" font-family="Arial">1</text><rect x="299" y="157" width="22" height="38" fill="#DBEAFE" stroke="#93C5FD" stroke-width="1.2" rx="3"/><text x="310" y="183" text-anchor="middle" font-size="17" font-weight="bold" fill="#1e40af" font-family="Arial">1</text><rect x="321" y="157" width="22" height="38" fill="#F97316" stroke="#93C5FD" stroke-width="1.2" rx="3"/><text x="332" y="183" text-anchor="middle" font-size="17" font-weight="bold" fill="white" font-family="Arial">1</text><rect x="353" y="157" width="22" height="38" fill="#DBEAFE" stroke="#93C5FD" stroke-width="1.2" rx="3"/><text x="364" y="183" text-anchor="middle" font-size="17" font-weight="bold" fill="#1e40af" font-family="Arial">2</text><rect x="375" y="157" width="22" height="38" fill="#DBEAFE" stroke="#93C5FD" stroke-width="1.2" rx="3"/><text x="386" y="183" text-anchor="middle" font-size="17" font-weight="bold" fill="#1e40af" font-family="Arial">2</text><rect x="397" y="157" width="22" height="38" fill="#F97316" stroke="#93C5FD" stroke-width="1.2" rx="3"/><text x="408" y="183" text-anchor="middle" font-size="17" font-weight="bold" fill="white" font-family="Arial">1</text><rect x="429" y="157" width="22" height="38" fill="#DBEAFE" stroke="#93C5FD" stroke-width="1.2" rx="3"/><text x="440" y="183" text-anchor="middle" font-size="17" font-weight="bold" fill="#1e40af" font-family="Arial">2</text><rect x="451" y="157" width="22" height="38" fill="#DBEAFE" stroke="#93C5FD" stroke-width="1.2" rx="3"/><text x="462" y="183" text-anchor="middle" font-size="17" font-weight="bold" fill="#1e40af" font-family="Arial">3</text><rect x="473" y="157" width="22" height="38" fill="#F97316" stroke="#93C5FD" stroke-width="1.2" rx="3"/><text x="484" y="183" text-anchor="middle" font-size="17" font-weight="bold" fill="white" font-family="Arial">2</text><rect x="505" y="157" width="22" height="38" fill="#DBEAFE" stroke="#93C5FD" stroke-width="1.2" rx="3"/><text x="516" y="183" text-anchor="middle" font-size="17" font-weight="bold" fill="#1e40af" font-family="Arial">1</text><rect x="527" y="157" width="22" height="38" fill="#DBEAFE" stroke="#93C5FD" stroke-width="1.2" rx="3"/><text x="538" y="183" text-anchor="middle" font-size="17" font-weight="bold" fill="#1e40af" font-family="Arial">1</text><rect x="549" y="157" width="22" height="38" fill="#F97316" stroke="#93C5FD" stroke-width="1.2" rx="3"/><text x="560" y="183" text-anchor="middle" font-size="17" font-weight="bold" fill="white" font-family="Arial">2</text><rect x="581" y="157" width="22" height="38" fill="#DBEAFE" stroke="#93C5FD" stroke-width="1.2" rx="3"/><text x="592" y="183" text-anchor="middle" font-size="17" font-weight="bold" fill="#1e40af" font-family="Arial">1</text><rect x="603" y="157" width="22" height="38" fill="#DBEAFE" stroke="#93C5FD" stroke-width="1.2" rx="3"/><text x="614" y="183" text-anchor="middle" font-size="17" font-weight="bold" fill="#1e40af" font-family="Arial">3</text><rect x="625" y="157" width="22" height="38" fill="#F97316" stroke="#93C5FD" stroke-width="1.2" rx="3"/><text x="636" y="183" text-anchor="middle" font-size="17" font-weight="bold" fill="white" font-family="Arial">2</text><rect x="657" y="157" width="22" height="38" fill="#DBEAFE" stroke="#93C5FD" stroke-width="1.2" rx="3"/><text x="668" y="183" text-anchor="middle" font-size="17" font-weight="bold" fill="#1e40af" font-family="Arial">2</text><rect x="679" y="157" width="22" height="38" fill="#DBEAFE" stroke="#93C5FD" stroke-width="1.2" rx="3"/><text x="690" y="183" text-anchor="middle" font-size="17" font-weight="bold" fill="#1e40af" font-family="Arial">1</text><rect x="701" y="157" width="22" height="38" fill="#F97316" stroke="#93C5FD" stroke-width="1.2" rx="3"/><text x="712" y="183" text-anchor="middle" font-size="17" font-weight="bold" fill="white" font-family="Arial">3</text><rect x="733" y="157" width="22" height="38" fill="#DBEAFE" stroke="#93C5FD" stroke-width="1.2" rx="3"/><text x="744" y="183" text-anchor="middle" font-size="17" font-weight="bold" fill="#1e40af" font-family="Arial">1</text><rect x="755" y="157" width="22" height="38" fill="#DBEAFE" stroke="#93C5FD" stroke-width="1.2" rx="3"/><text x="766" y="183" text-anchor="middle" font-size="17" font-weight="bold" fill="#1e40af" font-family="Arial">2</text><rect x="777" y="157" width="22" height="38" fill="#F97316" stroke="#93C5FD" stroke-width="1.2" rx="3"/><text x="788" y="183" text-anchor="middle" font-size="17" font-weight="bold" fill="white" font-family="Arial">3</text><text x="390" y="222" text-anchor="middle" font-size="18" fill="#94A3B8" font-family="Arial">↓</text><rect x="0" y="218" width="780" height="76" fill="#F0FDF4" rx="0"/><text x="10" y="264" font-size="14" font-weight="bold" fill="#334155" font-family="Arial">② 排十位數（橘色）</text><rect x="125" y="237" width="22" height="38" fill="#DBEAFE" stroke="#93C5FD" stroke-width="1.2" rx="3"/><text x="136" y="263" text-anchor="middle" font-size="17" font-weight="bold" fill="#1e40af" font-family="Arial">1</text><rect x="147" y="237" width="22" height="38" fill="#F97316" stroke="#93C5FD" stroke-width="1.2" rx="3"/><text x="158" y="263" text-anchor="middle" font-size="17" font-weight="bold" fill="white" font-family="Arial">1</text><rect x="169" y="237" width="22" height="38" fill="#DBEAFE" stroke="#93C5FD" stroke-width="1.2" rx="3"/><text x="180" y="263" text-anchor="middle" font-size="17" font-weight="bold" fill="#1e40af" font-family="Arial">1</text><rect x="201" y="237" width="22" height="38" fill="#DBEAFE" stroke="#93C5FD" stroke-width="1.2" rx="3"/><text x="212" y="263" text-anchor="middle" font-size="17" font-weight="bold" fill="#1e40af" font-family="Arial">1</text><rect x="223" y="237" width="22" height="38" fill="#F97316" stroke="#93C5FD" stroke-width="1.2" rx="3"/><text x="234" y="263" text-anchor="middle" font-size="17" font-weight="bold" fill="white" font-family="Arial">1</text><rect x="245" y="237" width="22" height="38" fill="#DBEAFE" stroke="#93C5FD" stroke-width="1.2" rx="3"/><text x="256" y="263" text-anchor="middle" font-size="17" font-weight="bold" fill="#1e40af" font-family="Arial">2</text><rect x="277" y="237" width="22" height="38" fill="#DBEAFE" stroke="#93C5FD" stroke-width="1.2" rx="3"/><text x="288" y="263" text-anchor="middle" font-size="17" font-weight="bold" fill="#1e40af" font-family="Arial">2</text><rect x="299" y="237" width="22" height="38" fill="#F97316" stroke="#93C5FD" stroke-width="1.2" rx="3"/><text x="310" y="263" text-anchor="middle" font-size="17" font-weight="bold" fill="white" font-family="Arial">1</text><rect x="321" y="237" width="22" height="38" fill="#DBEAFE" stroke="#93C5FD" stroke-width="1.2" rx="3"/><text x="332" y="263" text-anchor="middle" font-size="17" font-weight="bold" fill="#1e40af" font-family="Arial">3</text><rect x="353" y="237" width="22" height="38" fill="#DBEAFE" stroke="#93C5FD" stroke-width="1.2" rx="3"/><text x="364" y="263" text-anchor="middle" font-size="17" font-weight="bold" fill="#1e40af" font-family="Arial">3</text><rect x="375" y="237" width="22" height="38" fill="#F97316" stroke="#93C5FD" stroke-width="1.2" rx="3"/><text x="386" y="263" text-anchor="middle" font-size="17" font-weight="bold" fill="white" font-family="Arial">2</text><rect x="397" y="237" width="22" height="38" fill="#DBEAFE" stroke="#93C5FD" stroke-width="1.2" rx="3"/><text x="408" y="263" text-anchor="middle" font-size="17" font-weight="bold" fill="#1e40af" font-family="Arial">1</text><rect x="429" y="237" width="22" height="38" fill="#DBEAFE" stroke="#93C5FD" stroke-width="1.2" rx="3"/><text x="440" y="263" text-anchor="middle" font-size="17" font-weight="bold" fill="#1e40af" font-family="Arial">2</text><rect x="451" y="237" width="22" height="38" fill="#F97316" stroke="#93C5FD" stroke-width="1.2" rx="3"/><text x="462" y="263" text-anchor="middle" font-size="17" font-weight="bold" fill="white" font-family="Arial">2</text><rect x="473" y="237" width="22" height="38" fill="#DBEAFE" stroke="#93C5FD" stroke-width="1.2" rx="3"/><text x="484" y="263" text-anchor="middle" font-size="17" font-weight="bold" fill="#1e40af" font-family="Arial">1</text><rect x="505" y="237" width="22" height="38" fill="#DBEAFE" stroke="#93C5FD" stroke-width="1.2" rx="3"/><text x="516" y="263" text-anchor="middle" font-size="17" font-weight="bold" fill="#1e40af" font-family="Arial">1</text><rect x="527" y="237" width="22" height="38" fill="#F97316" stroke="#93C5FD" stroke-width="1.2" rx="3"/><text x="538" y="263" text-anchor="middle" font-size="17" font-weight="bold" fill="white" font-family="Arial">2</text><rect x="549" y="237" width="22" height="38" fill="#DBEAFE" stroke="#93C5FD" stroke-width="1.2" rx="3"/><text x="560" y="263" text-anchor="middle" font-size="17" font-weight="bold" fill="#1e40af" font-family="Arial">3</text><rect x="581" y="237" width="22" height="38" fill="#DBEAFE" stroke="#93C5FD" stroke-width="1.2" rx="3"/><text x="592" y="263" text-anchor="middle" font-size="17" font-weight="bold" fill="#1e40af" font-family="Arial">2</text><rect x="603" y="237" width="22" height="38" fill="#F97316" stroke="#93C5FD" stroke-width="1.2" rx="3"/><text x="614" y="263" text-anchor="middle" font-size="17" font-weight="bold" fill="white" font-family="Arial">3</text><rect x="625" y="237" width="22" height="38" fill="#DBEAFE" stroke="#93C5FD" stroke-width="1.2" rx="3"/><text x="636" y="263" text-anchor="middle" font-size="17" font-weight="bold" fill="#1e40af" font-family="Arial">1</text><rect x="657" y="237" width="22" height="38" fill="#DBEAFE" stroke="#93C5FD" stroke-width="1.2" rx="3"/><text x="668" y="263" text-anchor="middle" font-size="17" font-weight="bold" fill="#1e40af" font-family="Arial">2</text><rect x="679" y="237" width="22" height="38" fill="#F97316" stroke="#93C5FD" stroke-width="1.2" rx="3"/><text x="690" y="263" text-anchor="middle" font-size="17" font-weight="bold" fill="white" font-family="Arial">3</text><rect x="701" y="237" width="22" height="38" fill="#DBEAFE" stroke="#93C5FD" stroke-width="1.2" rx="3"/><text x="712" y="263" text-anchor="middle" font-size="17" font-weight="bold" fill="#1e40af" font-family="Arial">2</text><rect x="733" y="237" width="22" height="38" fill="#DBEAFE" stroke="#93C5FD" stroke-width="1.2" rx="3"/><text x="744" y="263" text-anchor="middle" font-size="17" font-weight="bold" fill="#1e40af" font-family="Arial">1</text><rect x="755" y="237" width="22" height="38" fill="#F97316" stroke="#93C5FD" stroke-width="1.2" rx="3"/><text x="766" y="263" text-anchor="middle" font-size="17" font-weight="bold" fill="white" font-family="Arial">3</text><rect x="777" y="237" width="22" height="38" fill="#DBEAFE" stroke="#93C5FD" stroke-width="1.2" rx="3"/><text x="788" y="263" text-anchor="middle" font-size="17" font-weight="bold" fill="#1e40af" font-family="Arial">2</text><text x="390" y="302" text-anchor="middle" font-size="18" fill="#94A3B8" font-family="Arial">↓</text><rect x="0" y="298" width="780" height="76" fill="#FFF7ED" rx="0"/><text x="10" y="344" font-size="14" font-weight="bold" fill="#334155" font-family="Arial">③ 排百位數（橘色）</text><rect x="125" y="317" width="22" height="38" fill="#F97316" stroke="#93C5FD" stroke-width="1.2" rx="3"/><text x="136" y="343" text-anchor="middle" font-size="17" font-weight="bold" fill="white" font-family="Arial">1</text><rect x="147" y="317" width="22" height="38" fill="#DBEAFE" stroke="#93C5FD" stroke-width="1.2" rx="3"/><text x="158" y="343" text-anchor="middle" font-size="17" font-weight="bold" fill="#1e40af" font-family="Arial">1</text><rect x="169" y="317" width="22" height="38" fill="#DBEAFE" stroke="#93C5FD" stroke-width="1.2" rx="3"/><text x="180" y="343" text-anchor="middle" font-size="17" font-weight="bold" fill="#1e40af" font-family="Arial">1</text><rect x="201" y="317" width="22" height="38" fill="#F97316" stroke="#93C5FD" stroke-width="1.2" rx="3"/><text x="212" y="343" text-anchor="middle" font-size="17" font-weight="bold" fill="white" font-family="Arial">1</text><rect x="223" y="317" width="22" height="38" fill="#DBEAFE" stroke="#93C5FD" stroke-width="1.2" rx="3"/><text x="234" y="343" text-anchor="middle" font-size="17" font-weight="bold" fill="#1e40af" font-family="Arial">1</text><rect x="245" y="317" width="22" height="38" fill="#DBEAFE" stroke="#93C5FD" stroke-width="1.2" rx="3"/><text x="256" y="343" text-anchor="middle" font-size="17" font-weight="bold" fill="#1e40af" font-family="Arial">2</text><rect x="277" y="317" width="22" height="38" fill="#F97316" stroke="#93C5FD" stroke-width="1.2" rx="3"/><text x="288" y="343" text-anchor="middle" font-size="17" font-weight="bold" fill="white" font-family="Arial">1</text><rect x="299" y="317" width="22" height="38" fill="#DBEAFE" stroke="#93C5FD" stroke-width="1.2" rx="3"/><text x="310" y="343" text-anchor="middle" font-size="17" font-weight="bold" fill="#1e40af" font-family="Arial">2</text><rect x="321" y="317" width="22" height="38" fill="#DBEAFE" stroke="#93C5FD" stroke-width="1.2" rx="3"/><text x="332" y="343" text-anchor="middle" font-size="17" font-weight="bold" fill="#1e40af" font-family="Arial">3</text><rect x="353" y="317" width="22" height="38" fill="#F97316" stroke="#93C5FD" stroke-width="1.2" rx="3"/><text x="364" y="343" text-anchor="middle" font-size="17" font-weight="bold" fill="white" font-family="Arial">1</text><rect x="375" y="317" width="22" height="38" fill="#DBEAFE" stroke="#93C5FD" stroke-width="1.2" rx="3"/><text x="386" y="343" text-anchor="middle" font-size="17" font-weight="bold" fill="#1e40af" font-family="Arial">3</text><rect x="397" y="317" width="22" height="38" fill="#DBEAFE" stroke="#93C5FD" stroke-width="1.2" rx="3"/><text x="408" y="343" text-anchor="middle" font-size="17" font-weight="bold" fill="#1e40af" font-family="Arial">2</text><rect x="429" y="317" width="22" height="38" fill="#F97316" stroke="#93C5FD" stroke-width="1.2" rx="3"/><text x="440" y="343" text-anchor="middle" font-size="17" font-weight="bold" fill="white" font-family="Arial">2</text><rect x="451" y="317" width="22" height="38" fill="#DBEAFE" stroke="#93C5FD" stroke-width="1.2" rx="3"/><text x="462" y="343" text-anchor="middle" font-size="17" font-weight="bold" fill="#1e40af" font-family="Arial">1</text><rect x="473" y="317" width="22" height="38" fill="#DBEAFE" stroke="#93C5FD" stroke-width="1.2" rx="3"/><text x="484" y="343" text-anchor="middle" font-size="17" font-weight="bold" fill="#1e40af" font-family="Arial">3</text><rect x="505" y="317" width="22" height="38" fill="#F97316" stroke="#93C5FD" stroke-width="1.2" rx="3"/><text x="516" y="343" text-anchor="middle" font-size="17" font-weight="bold" fill="white" font-family="Arial">2</text><rect x="527" y="317" width="22" height="38" fill="#DBEAFE" stroke="#93C5FD" stroke-width="1.2" rx="3"/><text x="538" y="343" text-anchor="middle" font-size="17" font-weight="bold" fill="#1e40af" font-family="Arial">2</text><rect x="549" y="317" width="22" height="38" fill="#DBEAFE" stroke="#93C5FD" stroke-width="1.2" rx="3"/><text x="560" y="343" text-anchor="middle" font-size="17" font-weight="bold" fill="#1e40af" font-family="Arial">1</text><rect x="581" y="317" width="22" height="38" fill="#F97316" stroke="#93C5FD" stroke-width="1.2" rx="3"/><text x="592" y="343" text-anchor="middle" font-size="17" font-weight="bold" fill="white" font-family="Arial">2</text><rect x="603" y="317" width="22" height="38" fill="#DBEAFE" stroke="#93C5FD" stroke-width="1.2" rx="3"/><text x="614" y="343" text-anchor="middle" font-size="17" font-weight="bold" fill="#1e40af" font-family="Arial">3</text><rect x="625" y="317" width="22" height="38" fill="#DBEAFE" stroke="#93C5FD" stroke-width="1.2" rx="3"/><text x="636" y="343" text-anchor="middle" font-size="17" font-weight="bold" fill="#1e40af" font-family="Arial">1</text><rect x="657" y="317" width="22" height="38" fill="#F97316" stroke="#93C5FD" stroke-width="1.2" rx="3"/><text x="668" y="343" text-anchor="middle" font-size="17" font-weight="bold" fill="white" font-family="Arial">2</text><rect x="679" y="317" width="22" height="38" fill="#DBEAFE" stroke="#93C5FD" stroke-width="1.2" rx="3"/><text x="690" y="343" text-anchor="middle" font-size="17" font-weight="bold" fill="#1e40af" font-family="Arial">3</text><rect x="701" y="317" width="22" height="38" fill="#DBEAFE" stroke="#93C5FD" stroke-width="1.2" rx="3"/><text x="712" y="343" text-anchor="middle" font-size="17" font-weight="bold" fill="#1e40af" font-family="Arial">2</text><rect x="733" y="317" width="22" height="38" fill="#F97316" stroke="#93C5FD" stroke-width="1.2" rx="3"/><text x="744" y="343" text-anchor="middle" font-size="17" font-weight="bold" fill="white" font-family="Arial">3</text><rect x="755" y="317" width="22" height="38" fill="#DBEAFE" stroke="#93C5FD" stroke-width="1.2" rx="3"/><text x="766" y="343" text-anchor="middle" font-size="17" font-weight="bold" fill="#1e40af" font-family="Arial">2</text><rect x="777" y="317" width="22" height="38" fill="#DBEAFE" stroke="#93C5FD" stroke-width="1.2" rx="3"/><text x="788" y="343" text-anchor="middle" font-size="17" font-weight="bold" fill="#1e40af" font-family="Arial">1</text></svg>