<svg xmlns="http://www.w3.org/2000/svg" width="780" height="620" font-family="Arial,'Microsoft JhengHei',sans-serif">
<defs><marker id="r" markerWidth="9" markerHeight="7" refX="8" refY="3.5" orient="auto"><polygon points="0,0 0,7 9,3.5" fill="#DC2626"/></marker></defs>
<defs><marker id="g" markerWidth="9" markerHeight="7" refX="8" refY="3.5" orient="auto"><polygon points="0,0 0,7 9,3.5" fill="#6B7280"/></marker></defs>
<rect x="0" y="338" width="780" height="282" fill="#FFF9F0"/>
<line x1="40" y1="336" x2="740" y2="336" stroke="#FCA5A5" stroke-width="2.5" stroke-dasharray="10,5"/>
<text x="390" y="26" text-anchor="middle" font-size="20" font-weight="bold" fill="#1e293b">合併排序法（Merge Sort）：分治示意圖</text>
<rect x="152" y="42" width="46" height="38" fill="#FFFFFF" stroke="#5B9BD5" stroke-width="2" rx="5"/>
<text x="175" y="67" text-anchor="middle" font-size="16" font-weight="bold" fill="#1e293b">39</text>
<rect x="198" y="42" width="46" height="38" fill="#FFFFFF" stroke="#5B9BD5" stroke-width="2" rx="5"/>
<text x="221" y="67" text-anchor="middle" font-size="16" font-weight="bold" fill="#1e293b">28</text>
<rect x="264" y="42" width="46" height="38" fill="#FFFFFF" stroke="#5B9BD5" stroke-width="2" rx="5"/>
<text x="287" y="67" text-anchor="middle" font-size="16" font-weight="bold" fill="#1e293b">45</text>
<rect x="310" y="42" width="46" height="38" fill="#FFFFFF" stroke="#5B9BD5" stroke-width="2" rx="5"/>
<text x="333" y="67" text-anchor="middle" font-size="16" font-weight="bold" fill="#1e293b">6</text>
<rect x="446" y="42" width="46" height="38" fill="#FFFFFF" stroke="#5B9BD5" stroke-width="2" rx="5"/>
<text x="469" y="67" text-anchor="middle" font-size="16" font-weight="bold" fill="#1e293b">8</text>
<rect x="492" y="42" width="46" height="38" fill="#FFFFFF" stroke="#5B9BD5" stroke-width="2" rx="5"/>
<text x="515" y="67" text-anchor="middle" font-size="16" font-weight="bold" fill="#1e293b">76</text>
<rect x="562" y="42" width="46" height="38" fill="#FFFFFF" stroke="#5B9BD5" stroke-width="2" rx="5"/>
<text x="585" y="67" text-anchor="middle" font-size="16" font-weight="bold" fill="#1e293b">11</text>
<line x1="369" y1="80" x2="254" y2="120" stroke="#DC2626" stroke-width="2.2" marker-end="url(#r)"/>
<line x1="369" y1="80" x2="523" y2="120" stroke="#DC2626" stroke-width="2.2" marker-end="url(#r)"/>
<rect x="152" y="120" width="46" height="38" fill="#D6E8F7" stroke="#5B9BD5" stroke-width="2" rx="5"/>
<rect x="198" y="120" width="46" height="38" fill="#D6E8F7" stroke="#5B9BD5" stroke-width="2" rx="5"/>
<rect x="264" y="120" width="46" height="38" fill="#D6E8F7" stroke="#5B9BD5" stroke-width="2" rx="5"/>
<rect x="310" y="120" width="46" height="38" fill="#D6E8F7" stroke="#5B9BD5" stroke-width="2" rx="5"/>
<rect x="446" y="120" width="46" height="38" fill="#D6E8F7" stroke="#5B9BD5" stroke-width="2" rx="5"/>
<rect x="492" y="120" width="46" height="38" fill="#D6E8F7" stroke="#5B9BD5" stroke-width="2" rx="5"/>
<rect x="562" y="120" width="46" height="38" fill="#D6E8F7" stroke="#5B9BD5" stroke-width="2" rx="5"/>
<line x1="254" y1="158" x2="198" y2="198" stroke="#DC2626" stroke-width="2.2" marker-end="url(#r)"/>
<line x1="254" y1="158" x2="310" y2="198" stroke="#DC2626" stroke-width="2.2" marker-end="url(#r)"/>
<line x1="523" y1="158" x2="492" y2="198" stroke="#DC2626" stroke-width="2.2" marker-end="url(#r)"/>
<line x1="523" y1="158" x2="585" y2="198" stroke="#DC2626" stroke-width="2.2" marker-end="url(#r)"/>
<rect x="152" y="198" width="46" height="38" fill="#D6E8F7" stroke="#5B9BD5" stroke-width="2" rx="5"/>
<rect x="198" y="198" width="46" height="38" fill="#D6E8F7" stroke="#5B9BD5" stroke-width="2" rx="5"/>
<rect x="264" y="198" width="46" height="38" fill="#D6E8F7" stroke="#5B9BD5" stroke-width="2" rx="5"/>
<rect x="310" y="198" width="46" height="38" fill="#D6E8F7" stroke="#5B9BD5" stroke-width="2" rx="5"/>
<rect x="446" y="198" width="46" height="38" fill="#D6E8F7" stroke="#5B9BD5" stroke-width="2" rx="5"/>
<rect x="492" y="198" width="46" height="38" fill="#D6E8F7" stroke="#5B9BD5" stroke-width="2" rx="5"/>
<rect x="562" y="198" width="46" height="38" fill="#D6E8F7" stroke="#5B9BD5" stroke-width="2" rx="5"/>
<line x1="198" y1="236" x2="175" y2="276" stroke="#DC2626" stroke-width="2.2" marker-end="url(#r)"/>
<line x1="198" y1="236" x2="221" y2="276" stroke="#DC2626" stroke-width="2.2" marker-end="url(#r)"/>
<line x1="310" y1="236" x2="287" y2="276" stroke="#DC2626" stroke-width="2.2" marker-end="url(#r)"/>
<line x1="310" y1="236" x2="333" y2="276" stroke="#DC2626" stroke-width="2.2" marker-end="url(#r)"/>
<line x1="492" y1="236" x2="469" y2="276" stroke="#DC2626" stroke-width="2.2" marker-end="url(#r)"/>
<line x1="492" y1="236" x2="515" y2="276" stroke="#DC2626" stroke-width="2.2" marker-end="url(#r)"/>
<rect x="152" y="276" width="46" height="38" fill="#CCFBF1" stroke="#0D9488" stroke-width="2" rx="5"/>
<rect x="198" y="276" width="46" height="38" fill="#CCFBF1" stroke="#0D9488" stroke-width="2" rx="5"/>
<rect x="264" y="276" width="46" height="38" fill="#CCFBF1" stroke="#0D9488" stroke-width="2" rx="5"/>
<rect x="310" y="276" width="46" height="38" fill="#CCFBF1" stroke="#0D9488" stroke-width="2" rx="5"/>
<rect x="446" y="276" width="46" height="38" fill="#CCFBF1" stroke="#0D9488" stroke-width="2" rx="5"/>
<rect x="492" y="276" width="46" height="38" fill="#CCFBF1" stroke="#0D9488" stroke-width="2" rx="5"/>
<rect x="562" y="276" width="46" height="38" fill="#CCFBF1" stroke="#0D9488" stroke-width="2" rx="5"/>
<text x="6" y="146" text-anchor="start" font-size="22" font-weight="bold" fill="#2563EB">分</text>
<text x="6" y="216" text-anchor="start" font-size="13" font-weight="bold" fill="#2563EB">Divide</text>
<line x1="198" y1="314" x2="198" y2="366" stroke="#6B7280" stroke-width="2.2" marker-end="url(#g)"/>
<line x1="310" y1="314" x2="310" y2="366" stroke="#6B7280" stroke-width="2.2" marker-end="url(#g)"/>
<line x1="492" y1="314" x2="492" y2="366" stroke="#6B7280" stroke-width="2.2" marker-end="url(#g)"/>
<line x1="585" y1="314" x2="585" y2="366" stroke="#6B7280" stroke-width="2.2" marker-end="url(#g)"/>
<rect x="152" y="366" width="46" height="38" fill="#FEF3C7" stroke="#D97706" stroke-width="2" rx="5"/>
<rect x="198" y="366" width="46" height="38" fill="#FEF3C7" stroke="#D97706" stroke-width="2" rx="5"/>
<rect x="264" y="366" width="46" height="38" fill="#FEF3C7" stroke="#D97706" stroke-width="2" rx="5"/>
<rect x="310" y="366" width="46" height="38" fill="#FEF3C7" stroke="#D97706" stroke-width="2" rx="5"/>
<rect x="446" y="366" width="46" height="38" fill="#FEF3C7" stroke="#D97706" stroke-width="2" rx="5"/>
<rect x="492" y="366" width="46" height="38" fill="#FEF3C7" stroke="#D97706" stroke-width="2" rx="5"/>
<rect x="562" y="366" width="46" height="38" fill="#FEF3C7" stroke="#D97706" stroke-width="2" rx="5"/>
<line x1="198" y1="404" x2="254" y2="444" stroke="#6B7280" stroke-width="2.2" marker-end="url(#g)"/>
<line x1="310" y1="404" x2="254" y2="444" stroke="#6B7280" stroke-width="2.2" marker-end="url(#g)"/>
<line x1="492" y1="404" x2="523" y2="444" stroke="#6B7280" stroke-width="2.2" marker-end="url(#g)"/>
<line x1="585" y1="404" x2="523" y2="444" stroke="#6B7280" stroke-width="2.2" marker-end="url(#g)"/>
<rect x="152" y="444" width="46" height="38" fill="#FEF3C7" stroke="#D97706" stroke-width="2" rx="5"/>
<rect x="198" y="444" width="46" height="38" fill="#FEF3C7" stroke="#D97706" stroke-width="2" rx="5"/>
<rect x="264" y="444" width="46" height="38" fill="#FEF3C7" stroke="#D97706" stroke-width="2" rx="5"/>
<rect x="310" y="444" width="46" height="38" fill="#FEF3C7" stroke="#D97706" stroke-width="2" rx="5"/>
<rect x="446" y="444" width="46" height="38" fill="#FEF3C7" stroke="#D97706" stroke-width="2" rx="5"/>
<rect x="492" y="444" width="46" height="38" fill="#FEF3C7" stroke="#D97706" stroke-width="2" rx="5"/>
<rect x="562" y="444" width="46" height="38" fill="#FEF3C7" stroke="#D97706" stroke-width="2" rx="5"/>
<line x1="254" y1="482" x2="369" y2="530" stroke="#6B7280" stroke-width="2.2" marker-end="url(#g)"/>
<line x1="523" y1="482" x2="369" y2="530" stroke="#6B7280" stroke-width="2.2" marker-end="url(#g)"/>
<rect x="152" y="530" width="46" height="38" fill="#FEF3C7" stroke="#D97706" stroke-width="2" rx="5"/>
<text x="175" y="555" text-anchor="middle" font-size="16" font-weight="bold" fill="#1e293b">6</text>
<rect x="198" y="530" width="46" height="38" fill="#FEF3C7" stroke="#D97706" stroke-width="2" rx="5"/>
<text x="221" y="555" text-anchor="middle" font-size="16" font-weight="bold" fill="#1e293b">8</text>
<rect x="264" y="530" width="46" height="38" fill="#FEF3C7" stroke="#D97706" stroke-width="2" rx="5"/>
<text x="287" y="555" text-anchor="middle" font-size="16" font-weight="bold" fill="#1e293b">11</text>
<rect x="310" y="530" width="46" height="38" fill="#FEF3C7" stroke="#D97706" stroke-width="2" rx="5"/>
<text x="333" y="555" text-anchor="middle" font-size="16" font-weight="bold" fill="#1e293b">28</text>
<rect x="446" y="530" width="46" height="38" fill="#FEF3C7" stroke="#D97706" stroke-width="2" rx="5"/>
<text x="469" y="555" text-anchor="middle" font-size="16" font-weight="bold" fill="#1e293b">39</text>
<rect x="492" y="530" width="46" height="38" fill="#FEF3C7" stroke="#D97706" stroke-width="2" rx="5"/>
<text x="515" y="555" text-anchor="middle" font-size="16" font-weight="bold" fill="#1e293b">45</text>
<rect x="562" y="530" width="46" height="38" fill="#FEF3C7" stroke="#D97706" stroke-width="2" rx="5"/>
<text x="585" y="555" text-anchor="middle" font-size="16" font-weight="bold" fill="#1e293b">76</text>
<text x="6" y="392" text-anchor="start" font-size="22" font-weight="bold" fill="#059669">治</text>
<text x="6" y="462" text-anchor="start" font-size="13" font-weight="bold" fill="#059669">Merge</text>
<text x="772" y="392" text-anchor="end" font-size="15" font-weight="bold" fill="#059669">排序合併</text>
<text x="772" y="556" text-anchor="end" font-size="15" font-weight="bold" fill="#059669">完成</text>
</svg>