<svg xmlns="http://www.w3.org/2000/svg" width="740" height="456">
<defs>
  <marker id="arr" markerWidth="12" markerHeight="9"
          refX="11" refY="4.5" orient="auto">
    <polygon points="0,0 0,9 11,4.5" fill="#64748B"/>
  </marker>
  <marker id="arr_up" markerWidth="12" markerHeight="9"
          refX="6" refY="9" orient="auto">
    <polygon points="0,9 12,9 6,0" fill="#555"/>
  </marker>
</defs>
<text x="370" y="28" text-anchor="middle" font-size="18" font-weight="bold" fill="#1e293b" font-family="Arial">交換 e ↔ b；繼續掃描直到指標交叉</text>
<text x="10" y="51" font-size="16" font-weight="bold" fill="#1e293b" font-family="Arial">① 交換 e ↔ b</text>
<text x="111" y="65" text-anchor="middle" font-size="15" font-weight="bold" fill="#475569" font-family="monospace">[0]</text>
<text x="185" y="65" text-anchor="middle" font-size="15" font-weight="bold" fill="#475569" font-family="monospace">[1]</text>
<text x="259" y="65" text-anchor="middle" font-size="15" font-weight="bold" fill="#475569" font-family="monospace">[2]</text>
<text x="333" y="65" text-anchor="middle" font-size="15" font-weight="bold" fill="#475569" font-family="monospace">[3]</text>
<text x="407" y="65" text-anchor="middle" font-size="15" font-weight="bold" fill="#475569" font-family="monospace">[4]</text>
<text x="481" y="65" text-anchor="middle" font-size="15" font-weight="bold" fill="#475569" font-family="monospace">[5]</text>
<text x="555" y="65" text-anchor="middle" font-size="15" font-weight="bold" fill="#475569" font-family="monospace">[6]</text>
<text x="629" y="65" text-anchor="middle" font-size="15" font-weight="bold" fill="#475569" font-family="monospace">[7]</text>
<rect x="76" y="75" width="70" height="54" fill="#8B5CF6" stroke="#5B21B6" stroke-width="2.5" rx="9"/><text x="111" y="111" text-anchor="middle" font-size="26" font-weight="bold" fill="white" font-family="Arial">d</text>
<rect x="150" y="75" width="70" height="54" fill="#22C55E" stroke="#15803D" stroke-width="2.5" rx="9"/><text x="185" y="111" text-anchor="middle" font-size="26" font-weight="bold" fill="white" font-family="Arial">b</text>
<rect x="224" y="75" width="70" height="54" fill="#5B9BD5" stroke="#2E6DA4" stroke-width="2.5" rx="9"/><text x="259" y="111" text-anchor="middle" font-size="26" font-weight="bold" fill="white" font-family="Arial">a</text>
<rect x="298" y="75" width="70" height="54" fill="#5B9BD5" stroke="#2E6DA4" stroke-width="2.5" rx="9"/><text x="333" y="111" text-anchor="middle" font-size="26" font-weight="bold" fill="white" font-family="Arial">c</text>
<rect x="372" y="75" width="70" height="54" fill="#5B9BD5" stroke="#2E6DA4" stroke-width="2.5" rx="9"/><text x="407" y="111" text-anchor="middle" font-size="26" font-weight="bold" fill="white" font-family="Arial">f</text>
<rect x="446" y="75" width="70" height="54" fill="#F97316" stroke="#B45309" stroke-width="2.5" rx="9"/><text x="481" y="111" text-anchor="middle" font-size="26" font-weight="bold" fill="white" font-family="Arial">e</text>
<rect x="520" y="75" width="70" height="54" fill="#5B9BD5" stroke="#2E6DA4" stroke-width="2.5" rx="9"/><text x="555" y="111" text-anchor="middle" font-size="26" font-weight="bold" fill="white" font-family="Arial">h</text>
<rect x="594" y="75" width="70" height="54" fill="#5B9BD5" stroke="#2E6DA4" stroke-width="2.5" rx="9"/><text x="629" y="111" text-anchor="middle" font-size="26" font-weight="bold" fill="white" font-family="Arial">g</text>
<line x1="185" y1="167" x2="185" y2="139" stroke="#22C55E" stroke-width="3" marker-end="url(#arr_up)"/><text x="185" y="181" text-anchor="middle" font-size="15" font-weight="bold" fill="#22C55E" font-family="Arial">左指標</text>
<line x1="481" y1="167" x2="481" y2="139" stroke="#F97316" stroke-width="3" marker-end="url(#arr_up)"/><text x="481" y="181" text-anchor="middle" font-size="15" font-weight="bold" fill="#F97316" font-family="Arial">右指標</text>
<line x1="10" y1="224" x2="730" y2="224" stroke="#CBD5E1" stroke-width="1.5" stroke-dasharray="6,4"/>
<text x="10" y="240" font-size="16" font-weight="bold" fill="#1e293b" font-family="Arial">② 繼續掃描，指標交叉 → 停止</text>
<text x="111" y="254" text-anchor="middle" font-size="15" font-weight="bold" fill="#475569" font-family="monospace">[0]</text>
<text x="185" y="254" text-anchor="middle" font-size="15" font-weight="bold" fill="#475569" font-family="monospace">[1]</text>
<text x="259" y="254" text-anchor="middle" font-size="15" font-weight="bold" fill="#475569" font-family="monospace">[2]</text>
<text x="333" y="254" text-anchor="middle" font-size="15" font-weight="bold" fill="#475569" font-family="monospace">[3]</text>
<text x="407" y="254" text-anchor="middle" font-size="15" font-weight="bold" fill="#475569" font-family="monospace">[4]</text>
<text x="481" y="254" text-anchor="middle" font-size="15" font-weight="bold" fill="#475569" font-family="monospace">[5]</text>
<text x="555" y="254" text-anchor="middle" font-size="15" font-weight="bold" fill="#475569" font-family="monospace">[6]</text>
<text x="629" y="254" text-anchor="middle" font-size="15" font-weight="bold" fill="#475569" font-family="monospace">[7]</text>
<rect x="76" y="262" width="70" height="54" fill="#8B5CF6" stroke="#5B21B6" stroke-width="2.5" rx="9"/><text x="111" y="298" text-anchor="middle" font-size="26" font-weight="bold" fill="white" font-family="Arial">d</text>
<rect x="150" y="262" width="70" height="54" fill="#5B9BD5" stroke="#2E6DA4" stroke-width="2.5" rx="9"/><text x="185" y="298" text-anchor="middle" font-size="26" font-weight="bold" fill="white" font-family="Arial">b</text>
<rect x="224" y="262" width="70" height="54" fill="#5B9BD5" stroke="#2E6DA4" stroke-width="2.5" rx="9"/><text x="259" y="298" text-anchor="middle" font-size="26" font-weight="bold" fill="white" font-family="Arial">a</text>
<rect x="298" y="262" width="70" height="54" fill="#22C55E" stroke="#15803D" stroke-width="2.5" rx="9"/><text x="333" y="298" text-anchor="middle" font-size="26" font-weight="bold" fill="white" font-family="Arial">c</text>
<rect x="372" y="262" width="70" height="54" fill="#F97316" stroke="#B45309" stroke-width="2.5" rx="9"/><text x="407" y="298" text-anchor="middle" font-size="26" font-weight="bold" fill="white" font-family="Arial">f</text>
<rect x="446" y="262" width="70" height="54" fill="#5B9BD5" stroke="#2E6DA4" stroke-width="2.5" rx="9"/><text x="481" y="298" text-anchor="middle" font-size="26" font-weight="bold" fill="white" font-family="Arial">e</text>
<rect x="520" y="262" width="70" height="54" fill="#5B9BD5" stroke="#2E6DA4" stroke-width="2.5" rx="9"/><text x="555" y="298" text-anchor="middle" font-size="26" font-weight="bold" fill="white" font-family="Arial">h</text>
<rect x="594" y="262" width="70" height="54" fill="#5B9BD5" stroke="#2E6DA4" stroke-width="2.5" rx="9"/><text x="629" y="298" text-anchor="middle" font-size="26" font-weight="bold" fill="white" font-family="Arial">g</text>
<line x1="407" y1="354" x2="407" y2="326" stroke="#F97316" stroke-width="3" marker-end="url(#arr_up)"/><text x="407" y="368" text-anchor="middle" font-size="15" font-weight="bold" fill="#F97316" font-family="Arial">左指標</text><text x="407" y="386" text-anchor="middle" font-size="14" fill="#F97316" font-family="Arial">f &gt; d</text>
<line x1="333" y1="354" x2="333" y2="326" stroke="#22C55E" stroke-width="3" marker-end="url(#arr_up)"/><text x="333" y="368" text-anchor="middle" font-size="15" font-weight="bold" fill="#22C55E" font-family="Arial">右指標</text><text x="333" y="386" text-anchor="middle" font-size="14" fill="#22C55E" font-family="Arial">c &lt; d</text>
<rect x="215" y="396" width="310" height="42" rx="10" fill="#FEF2F2" stroke="#EF4444" stroke-width="2.5"/><text x="370" y="423" text-anchor="middle" font-size="16" fill="#DC2626" font-weight="bold" font-family="Arial">左指標(4) &gt; 右指標(3) → 停止！</text>
</svg>