<svg xmlns="http://www.w3.org/2000/svg" width="640" height="470">
<defs>
  <marker id="arr" markerWidth="8" markerHeight="8" refX="6" refY="3" orient="auto">
    <path d="M0,0 L0,6 L8,3 z" fill="#E74C3C"/>
  </marker>
</defs>
<text x="320" y="22" text-anchor="middle" font-size="14" font-weight="bold" fill="#333" font-family="Arial">第1回排序完成：8成新根。灰色節點 9 已就定位</text>
<line x1="297.6" y1="68.3" x2="182.4" y2="136.7" stroke="#888" stroke-width="2" />
<line x1="342.4" y1="68.3" x2="457.6" y2="136.7" stroke="#888" stroke-width="2" />
<line x1="143.3" y1="169.9" x2="96.7" y2="225.1" stroke="#888" stroke-width="2" />
<line x1="176.7" y1="169.9" x2="223.3" y2="225.1" stroke="#888" stroke-width="2" />
<line x1="463.3" y1="169.9" x2="416.7" y2="225.1" stroke="#888" stroke-width="2" />
<line x1="496.7" y1="169.9" x2="543.3" y2="225.1" stroke="#888" stroke-width="2" />
<line x1="69.4" y1="268.8" x2="50.6" y2="311.2" stroke="#888" stroke-width="2" />
<line x1="90.6" y1="268.8" x2="109.4" y2="311.2" stroke="#CCC" stroke-width="2" stroke-dasharray="5,3"/>
<circle cx="320" cy="55" r="26" fill="#9B59B6" stroke="#6c3483" stroke-width="2.5"/><text x="320" y="60" text-anchor="middle" font-size="17" font-weight="bold" fill="white" font-family="Arial">8</text><text x="320" y="96" text-anchor="middle" font-size="11" fill="#555" font-family="monospace">[1]</text>
<circle cx="160" cy="150" r="26" fill="#4A90D9" stroke="#1a5fa8" stroke-width="2.5"/><text x="160" y="155" text-anchor="middle" font-size="17" font-weight="bold" fill="white" font-family="Arial">6</text><text x="160" y="191" text-anchor="middle" font-size="11" fill="#555" font-family="monospace">[2]</text>
<circle cx="480" cy="150" r="26" fill="#4A90D9" stroke="#1a5fa8" stroke-width="2.5"/><text x="480" y="155" text-anchor="middle" font-size="17" font-weight="bold" fill="white" font-family="Arial">7</text><text x="480" y="191" text-anchor="middle" font-size="11" fill="#555" font-family="monospace">[3]</text>
<circle cx="80" cy="245" r="26" fill="#4A90D9" stroke="#1a5fa8" stroke-width="2.5"/><text x="80" y="250" text-anchor="middle" font-size="17" font-weight="bold" fill="white" font-family="Arial">5</text><text x="80" y="286" text-anchor="middle" font-size="11" fill="#555" font-family="monospace">[4]</text>
<circle cx="240" cy="245" r="26" fill="#4A90D9" stroke="#1a5fa8" stroke-width="2.5"/><text x="240" y="250" text-anchor="middle" font-size="17" font-weight="bold" fill="white" font-family="Arial">2</text><text x="240" y="286" text-anchor="middle" font-size="11" fill="#555" font-family="monospace">[5]</text>
<circle cx="400" cy="245" r="26" fill="#4A90D9" stroke="#1a5fa8" stroke-width="2.5"/><text x="400" y="250" text-anchor="middle" font-size="17" font-weight="bold" fill="white" font-family="Arial">3</text><text x="400" y="286" text-anchor="middle" font-size="11" fill="#555" font-family="monospace">[6]</text>
<circle cx="560" cy="245" r="26" fill="#4A90D9" stroke="#1a5fa8" stroke-width="2.5"/><text x="560" y="250" text-anchor="middle" font-size="17" font-weight="bold" fill="white" font-family="Arial">4</text><text x="560" y="286" text-anchor="middle" font-size="11" fill="#555" font-family="monospace">[7]</text>
<circle cx="40" cy="335" r="26" fill="#4A90D9" stroke="#1a5fa8" stroke-width="2.5"/><text x="40" y="340" text-anchor="middle" font-size="17" font-weight="bold" fill="white" font-family="Arial">1</text><text x="40" y="376" text-anchor="middle" font-size="11" fill="#555" font-family="monospace">[8]</text>
<circle cx="120" cy="335" r="26" fill="#BDC3C7" stroke="#7F8C8D" stroke-width="2.5"/><text x="120" y="340" text-anchor="middle" font-size="17" font-weight="bold" fill="#555" font-family="Arial">9</text><text x="120" y="376" text-anchor="middle" font-size="11" fill="#AAA" font-family="monospace">[9]</text>
<text x="320" y="374" text-anchor="middle" font-size="12" fill="#555" font-family="Arial">陣列 a[1..9]</text>
<rect x="68" y="380" width="56" height="18" fill="#DDE8F5" stroke="#AAA" stroke-width="1"/>
<text x="96" y="393" text-anchor="middle" font-size="11" fill="#555" font-family="monospace">1</text>
<rect x="68" y="398" width="56" height="38" fill="#4A90D9" stroke="#888" stroke-width="1.5" rx="3"/>
<text x="96" y="423" text-anchor="middle" font-size="17" font-weight="bold" fill="white" font-family="Arial">8</text>
<rect x="124" y="380" width="56" height="18" fill="#DDE8F5" stroke="#AAA" stroke-width="1"/>
<text x="152" y="393" text-anchor="middle" font-size="11" fill="#555" font-family="monospace">2</text>
<rect x="124" y="398" width="56" height="38" fill="#4A90D9" stroke="#888" stroke-width="1.5" rx="3"/>
<text x="152" y="423" text-anchor="middle" font-size="17" font-weight="bold" fill="white" font-family="Arial">6</text>
<rect x="180" y="380" width="56" height="18" fill="#DDE8F5" stroke="#AAA" stroke-width="1"/>
<text x="208" y="393" text-anchor="middle" font-size="11" fill="#555" font-family="monospace">3</text>
<rect x="180" y="398" width="56" height="38" fill="#4A90D9" stroke="#888" stroke-width="1.5" rx="3"/>
<text x="208" y="423" text-anchor="middle" font-size="17" font-weight="bold" fill="white" font-family="Arial">7</text>
<rect x="236" y="380" width="56" height="18" fill="#DDE8F5" stroke="#AAA" stroke-width="1"/>
<text x="264" y="393" text-anchor="middle" font-size="11" fill="#555" font-family="monospace">4</text>
<rect x="236" y="398" width="56" height="38" fill="#4A90D9" stroke="#888" stroke-width="1.5" rx="3"/>
<text x="264" y="423" text-anchor="middle" font-size="17" font-weight="bold" fill="white" font-family="Arial">5</text>
<rect x="292" y="380" width="56" height="18" fill="#DDE8F5" stroke="#AAA" stroke-width="1"/>
<text x="320" y="393" text-anchor="middle" font-size="11" fill="#555" font-family="monospace">5</text>
<rect x="292" y="398" width="56" height="38" fill="#4A90D9" stroke="#888" stroke-width="1.5" rx="3"/>
<text x="320" y="423" text-anchor="middle" font-size="17" font-weight="bold" fill="white" font-family="Arial">2</text>
<rect x="348" y="380" width="56" height="18" fill="#DDE8F5" stroke="#AAA" stroke-width="1"/>
<text x="376" y="393" text-anchor="middle" font-size="11" fill="#555" font-family="monospace">6</text>
<rect x="348" y="398" width="56" height="38" fill="#4A90D9" stroke="#888" stroke-width="1.5" rx="3"/>
<text x="376" y="423" text-anchor="middle" font-size="17" font-weight="bold" fill="white" font-family="Arial">3</text>
<rect x="404" y="380" width="56" height="18" fill="#DDE8F5" stroke="#AAA" stroke-width="1"/>
<text x="432" y="393" text-anchor="middle" font-size="11" fill="#555" font-family="monospace">7</text>
<rect x="404" y="398" width="56" height="38" fill="#4A90D9" stroke="#888" stroke-width="1.5" rx="3"/>
<text x="432" y="423" text-anchor="middle" font-size="17" font-weight="bold" fill="white" font-family="Arial">4</text>
<rect x="460" y="380" width="56" height="18" fill="#DDE8F5" stroke="#AAA" stroke-width="1"/>
<text x="488" y="393" text-anchor="middle" font-size="11" fill="#555" font-family="monospace">8</text>
<rect x="460" y="398" width="56" height="38" fill="#4A90D9" stroke="#888" stroke-width="1.5" rx="3"/>
<text x="488" y="423" text-anchor="middle" font-size="17" font-weight="bold" fill="white" font-family="Arial">1</text>
<rect x="516" y="380" width="56" height="18" fill="#EAEAEA" stroke="#AAA" stroke-width="1"/>
<text x="544" y="393" text-anchor="middle" font-size="11" fill="#AAA" font-family="monospace">9</text>
<rect x="516" y="398" width="56" height="38" fill="#BDC3C7" stroke="#888" stroke-width="1.5" rx="3"/>
<text x="544" y="423" text-anchor="middle" font-size="17" font-weight="bold" fill="#666" font-family="Arial">9</text>
<rect x="516" y="398" width="56" height="38" fill="none" stroke="#E74C3C" stroke-width="2" rx="3" stroke-dasharray="4,2"/>
<text x="544" y="450" text-anchor="middle" font-size="11" fill="#E74C3C" font-family="Arial">已排序</text>
</svg>