<svg xmlns="http://www.w3.org/2000/svg" width="780" height="782" font-family="Arial,'Microsoft JhengHei',sans-serif">
<defs><marker id="gn" markerWidth="10" markerHeight="7" refX="9" refY="3.5" orient="auto"><polygon points="0,0 0,7 10,3.5" fill="#16A34A"/></marker></defs>
<defs><marker id="gr" markerWidth="10" markerHeight="7" refX="9" refY="3.5" orient="auto"><polygon points="0,0 0,7 10,3.5" fill="#64748B"/></marker></defs>
<defs><marker id="rd" markerWidth="10" markerHeight="7" refX="9" refY="3.5" orient="auto"><polygon points="0,0 0,7 10,3.5" fill="#DC2626"/></marker></defs>
<text x="390" y="32" text-anchor="middle" font-size="20" font-weight="bold" fill="#1e293b">合併過程：A 與 B 的逐步比較</text>
<rect x="0" y="50" width="780" height="178" fill="#F8FAFC"/>
<line x1="0" y1="50" x2="780" y2="50" stroke="#E2E8F0" stroke-width="1"/>
<text x="12" y="72" text-anchor="start" font-size="16" font-weight="bold" fill="#1e293b">步驟 ①  比較 A[0]=1  vs  B[0]=2  → 取 1（較小）</text>
<text x="14" y="113" text-anchor="start" font-size="18" font-weight="bold" fill="#2563EB">A:</text>
<rect x="114" y="84" width="52" height="42" fill="#FEE2E2" stroke="#DC2626" stroke-width="2.2" rx="6"/>
<text x="140" y="113" text-anchor="middle" font-size="22" font-weight="bold" fill="#1e293b">1</text>
<text x="140" y="82" text-anchor="middle" font-size="14" font-weight="bold" fill="#DC2626">▼</text>
<rect x="174" y="84" width="52" height="42" fill="#DBEAFE" stroke="#2563EB" stroke-width="2.2" rx="6"/>
<text x="200" y="113" text-anchor="middle" font-size="22" font-weight="bold" fill="#1e293b">5</text>
<rect x="234" y="84" width="52" height="42" fill="#DBEAFE" stroke="#2563EB" stroke-width="2.2" rx="6"/>
<text x="260" y="113" text-anchor="middle" font-size="22" font-weight="bold" fill="#1e293b">6</text>
<rect x="294" y="84" width="52" height="42" fill="#DBEAFE" stroke="#2563EB" stroke-width="2.2" rx="6"/>
<text x="320" y="113" text-anchor="middle" font-size="22" font-weight="bold" fill="#1e293b">7</text>
<text x="368" y="113" text-anchor="start" font-size="18" font-weight="bold" fill="#D97706">B:</text>
<rect x="380" y="84" width="52" height="42" fill="#FEE2E2" stroke="#DC2626" stroke-width="2.2" rx="6"/>
<text x="406" y="113" text-anchor="middle" font-size="22" font-weight="bold" fill="#1e293b">2</text>
<text x="406" y="82" text-anchor="middle" font-size="14" font-weight="bold" fill="#DC2626">▼</text>
<rect x="440" y="84" width="52" height="42" fill="#FEF3C7" stroke="#D97706" stroke-width="2.2" rx="6"/>
<text x="466" y="113" text-anchor="middle" font-size="22" font-weight="bold" fill="#1e293b">3</text>
<rect x="500" y="84" width="52" height="42" fill="#FEF3C7" stroke="#D97706" stroke-width="2.2" rx="6"/>
<text x="526" y="113" text-anchor="middle" font-size="22" font-weight="bold" fill="#1e293b">4</text>
<text x="14" y="179" text-anchor="start" font-size="17" font-weight="bold" fill="#16A34A">結果:</text>
<rect x="114" y="150" width="52" height="42" fill="#F1F5F9" stroke="#CBD5E1" stroke-width="2.2" rx="6"/>
<rect x="174" y="150" width="52" height="42" fill="#F1F5F9" stroke="#CBD5E1" stroke-width="2.2" rx="6"/>
<rect x="234" y="150" width="52" height="42" fill="#F1F5F9" stroke="#CBD5E1" stroke-width="2.2" rx="6"/>
<rect x="294" y="150" width="52" height="42" fill="#F1F5F9" stroke="#CBD5E1" stroke-width="2.2" rx="6"/>
<rect x="354" y="150" width="52" height="42" fill="#F1F5F9" stroke="#CBD5E1" stroke-width="2.2" rx="6"/>
<rect x="414" y="150" width="52" height="42" fill="#F1F5F9" stroke="#CBD5E1" stroke-width="2.2" rx="6"/>
<rect x="474" y="150" width="52" height="42" fill="#F1F5F9" stroke="#CBD5E1" stroke-width="2.2" rx="6"/>
<line x1="140" y1="126" x2="140" y2="150" stroke="#16A34A" stroke-width="3" marker-end="url(#gn)"/>
<rect x="0" y="228" width="780" height="178" fill="#F0FDF4"/>
<line x1="0" y1="228" x2="780" y2="228" stroke="#E2E8F0" stroke-width="1"/>
<text x="12" y="250" text-anchor="start" font-size="16" font-weight="bold" fill="#1e293b">步驟 ②  比較 A[1]=5  vs  B[0]=2  → 取 2（較小）</text>
<text x="14" y="291" text-anchor="start" font-size="18" font-weight="bold" fill="#2563EB">A:</text>
<rect x="114" y="262" width="52" height="42" fill="#DBEAFE" stroke="#2563EB" stroke-width="2.2" rx="6"/>
<text x="140" y="291" text-anchor="middle" font-size="22" font-weight="bold" fill="#1e293b">1</text>
<rect x="174" y="262" width="52" height="42" fill="#FEE2E2" stroke="#DC2626" stroke-width="2.2" rx="6"/>
<text x="200" y="291" text-anchor="middle" font-size="22" font-weight="bold" fill="#1e293b">5</text>
<text x="200" y="260" text-anchor="middle" font-size="14" font-weight="bold" fill="#DC2626">▼</text>
<rect x="234" y="262" width="52" height="42" fill="#DBEAFE" stroke="#2563EB" stroke-width="2.2" rx="6"/>
<text x="260" y="291" text-anchor="middle" font-size="22" font-weight="bold" fill="#1e293b">6</text>
<rect x="294" y="262" width="52" height="42" fill="#DBEAFE" stroke="#2563EB" stroke-width="2.2" rx="6"/>
<text x="320" y="291" text-anchor="middle" font-size="22" font-weight="bold" fill="#1e293b">7</text>
<text x="368" y="291" text-anchor="start" font-size="18" font-weight="bold" fill="#D97706">B:</text>
<rect x="380" y="262" width="52" height="42" fill="#FEE2E2" stroke="#DC2626" stroke-width="2.2" rx="6"/>
<text x="406" y="291" text-anchor="middle" font-size="22" font-weight="bold" fill="#1e293b">2</text>
<text x="406" y="260" text-anchor="middle" font-size="14" font-weight="bold" fill="#DC2626">▼</text>
<rect x="440" y="262" width="52" height="42" fill="#FEF3C7" stroke="#D97706" stroke-width="2.2" rx="6"/>
<text x="466" y="291" text-anchor="middle" font-size="22" font-weight="bold" fill="#1e293b">3</text>
<rect x="500" y="262" width="52" height="42" fill="#FEF3C7" stroke="#D97706" stroke-width="2.2" rx="6"/>
<text x="526" y="291" text-anchor="middle" font-size="22" font-weight="bold" fill="#1e293b">4</text>
<text x="14" y="357" text-anchor="start" font-size="17" font-weight="bold" fill="#16A34A">結果:</text>
<rect x="114" y="328" width="52" height="42" fill="#DCFCE7" stroke="#16A34A" stroke-width="2.2" rx="6"/>
<text x="140" y="357" text-anchor="middle" font-size="22" font-weight="bold" fill="#1e293b">1</text>
<rect x="174" y="328" width="52" height="42" fill="#F1F5F9" stroke="#CBD5E1" stroke-width="2.2" rx="6"/>
<rect x="234" y="328" width="52" height="42" fill="#F1F5F9" stroke="#CBD5E1" stroke-width="2.2" rx="6"/>
<rect x="294" y="328" width="52" height="42" fill="#F1F5F9" stroke="#CBD5E1" stroke-width="2.2" rx="6"/>
<rect x="354" y="328" width="52" height="42" fill="#F1F5F9" stroke="#CBD5E1" stroke-width="2.2" rx="6"/>
<rect x="414" y="328" width="52" height="42" fill="#F1F5F9" stroke="#CBD5E1" stroke-width="2.2" rx="6"/>
<rect x="474" y="328" width="52" height="42" fill="#F1F5F9" stroke="#CBD5E1" stroke-width="2.2" rx="6"/>
<line x1="406" y1="304" x2="200" y2="328" stroke="#16A34A" stroke-width="3" marker-end="url(#gn)"/>
<rect x="0" y="406" width="780" height="178" fill="#F8FAFC"/>
<line x1="0" y1="406" x2="780" y2="406" stroke="#E2E8F0" stroke-width="1"/>
<text x="12" y="428" text-anchor="start" font-size="16" font-weight="bold" fill="#1e293b">步驟 ③  比較 A[1]=5  vs  B[2]=4  → 取 4（較小）</text>
<text x="14" y="469" text-anchor="start" font-size="18" font-weight="bold" fill="#2563EB">A:</text>
<rect x="114" y="440" width="52" height="42" fill="#DBEAFE" stroke="#2563EB" stroke-width="2.2" rx="6"/>
<text x="140" y="469" text-anchor="middle" font-size="22" font-weight="bold" fill="#1e293b">1</text>
<rect x="174" y="440" width="52" height="42" fill="#FEE2E2" stroke="#DC2626" stroke-width="2.2" rx="6"/>
<text x="200" y="469" text-anchor="middle" font-size="22" font-weight="bold" fill="#1e293b">5</text>
<text x="200" y="438" text-anchor="middle" font-size="14" font-weight="bold" fill="#DC2626">▼</text>
<rect x="234" y="440" width="52" height="42" fill="#DBEAFE" stroke="#2563EB" stroke-width="2.2" rx="6"/>
<text x="260" y="469" text-anchor="middle" font-size="22" font-weight="bold" fill="#1e293b">6</text>
<rect x="294" y="440" width="52" height="42" fill="#DBEAFE" stroke="#2563EB" stroke-width="2.2" rx="6"/>
<text x="320" y="469" text-anchor="middle" font-size="22" font-weight="bold" fill="#1e293b">7</text>
<text x="368" y="469" text-anchor="start" font-size="18" font-weight="bold" fill="#D97706">B:</text>
<rect x="380" y="440" width="52" height="42" fill="#FEF3C7" stroke="#D97706" stroke-width="2.2" rx="6"/>
<text x="406" y="469" text-anchor="middle" font-size="22" font-weight="bold" fill="#1e293b">2</text>
<rect x="440" y="440" width="52" height="42" fill="#FEF3C7" stroke="#D97706" stroke-width="2.2" rx="6"/>
<text x="466" y="469" text-anchor="middle" font-size="22" font-weight="bold" fill="#1e293b">3</text>
<rect x="500" y="440" width="52" height="42" fill="#FEE2E2" stroke="#DC2626" stroke-width="2.2" rx="6"/>
<text x="526" y="469" text-anchor="middle" font-size="22" font-weight="bold" fill="#1e293b">4</text>
<text x="526" y="438" text-anchor="middle" font-size="14" font-weight="bold" fill="#DC2626">▼</text>
<text x="14" y="535" text-anchor="start" font-size="17" font-weight="bold" fill="#16A34A">結果:</text>
<rect x="114" y="506" width="52" height="42" fill="#DCFCE7" stroke="#16A34A" stroke-width="2.2" rx="6"/>
<text x="140" y="535" text-anchor="middle" font-size="22" font-weight="bold" fill="#1e293b">1</text>
<rect x="174" y="506" width="52" height="42" fill="#DCFCE7" stroke="#16A34A" stroke-width="2.2" rx="6"/>
<text x="200" y="535" text-anchor="middle" font-size="22" font-weight="bold" fill="#1e293b">2</text>
<rect x="234" y="506" width="52" height="42" fill="#DCFCE7" stroke="#16A34A" stroke-width="2.2" rx="6"/>
<text x="260" y="535" text-anchor="middle" font-size="22" font-weight="bold" fill="#1e293b">3</text>
<rect x="294" y="506" width="52" height="42" fill="#F1F5F9" stroke="#CBD5E1" stroke-width="2.2" rx="6"/>
<rect x="354" y="506" width="52" height="42" fill="#F1F5F9" stroke="#CBD5E1" stroke-width="2.2" rx="6"/>
<rect x="414" y="506" width="52" height="42" fill="#F1F5F9" stroke="#CBD5E1" stroke-width="2.2" rx="6"/>
<rect x="474" y="506" width="52" height="42" fill="#F1F5F9" stroke="#CBD5E1" stroke-width="2.2" rx="6"/>
<line x1="526" y1="482" x2="320" y2="506" stroke="#16A34A" stroke-width="3" marker-end="url(#gn)"/>
<rect x="0" y="584" width="780" height="178" fill="#F0FDF4"/>
<line x1="0" y1="584" x2="780" y2="584" stroke="#E2E8F0" stroke-width="1"/>
<text x="12" y="606" text-anchor="start" font-size="16" font-weight="bold" fill="#1e293b">步驟 ④  B 已取完 → 直接放入 A 剩餘  [5, 6, 7]</text>
<text x="14" y="647" text-anchor="start" font-size="18" font-weight="bold" fill="#2563EB">A:</text>
<rect x="114" y="618" width="52" height="42" fill="#DBEAFE" stroke="#2563EB" stroke-width="2.2" rx="6"/>
<text x="140" y="647" text-anchor="middle" font-size="22" font-weight="bold" fill="#1e293b">1</text>
<rect x="174" y="618" width="52" height="42" fill="#DBEAFE" stroke="#2563EB" stroke-width="2.2" rx="6"/>
<text x="200" y="647" text-anchor="middle" font-size="22" font-weight="bold" fill="#1e293b">5</text>
<rect x="234" y="618" width="52" height="42" fill="#DBEAFE" stroke="#2563EB" stroke-width="2.2" rx="6"/>
<text x="260" y="647" text-anchor="middle" font-size="22" font-weight="bold" fill="#1e293b">6</text>
<rect x="294" y="618" width="52" height="42" fill="#DBEAFE" stroke="#2563EB" stroke-width="2.2" rx="6"/>
<text x="320" y="647" text-anchor="middle" font-size="22" font-weight="bold" fill="#1e293b">7</text>
<text x="368" y="647" text-anchor="start" font-size="18" font-weight="bold" fill="#D97706">B:</text>
<rect x="380" y="618" width="52" height="42" fill="#FEF3C7" stroke="#D97706" stroke-width="2.2" rx="6"/>
<text x="406" y="647" text-anchor="middle" font-size="22" font-weight="bold" fill="#1e293b">2</text>
<rect x="440" y="618" width="52" height="42" fill="#FEF3C7" stroke="#D97706" stroke-width="2.2" rx="6"/>
<text x="466" y="647" text-anchor="middle" font-size="22" font-weight="bold" fill="#1e293b">3</text>
<rect x="500" y="618" width="52" height="42" fill="#FEF3C7" stroke="#D97706" stroke-width="2.2" rx="6"/>
<text x="526" y="647" text-anchor="middle" font-size="22" font-weight="bold" fill="#1e293b">4</text>
<text x="14" y="713" text-anchor="start" font-size="17" font-weight="bold" fill="#16A34A">結果:</text>
<rect x="114" y="684" width="52" height="42" fill="#DCFCE7" stroke="#16A34A" stroke-width="2.2" rx="6"/>
<text x="140" y="713" text-anchor="middle" font-size="22" font-weight="bold" fill="#1e293b">1</text>
<rect x="174" y="684" width="52" height="42" fill="#DCFCE7" stroke="#16A34A" stroke-width="2.2" rx="6"/>
<text x="200" y="713" text-anchor="middle" font-size="22" font-weight="bold" fill="#1e293b">2</text>
<rect x="234" y="684" width="52" height="42" fill="#DCFCE7" stroke="#16A34A" stroke-width="2.2" rx="6"/>
<text x="260" y="713" text-anchor="middle" font-size="22" font-weight="bold" fill="#1e293b">3</text>
<rect x="294" y="684" width="52" height="42" fill="#DCFCE7" stroke="#16A34A" stroke-width="2.2" rx="6"/>
<text x="320" y="713" text-anchor="middle" font-size="22" font-weight="bold" fill="#1e293b">4</text>
<rect x="354" y="684" width="52" height="42" fill="#F1F5F9" stroke="#CBD5E1" stroke-width="2.2" rx="6"/>
<rect x="414" y="684" width="52" height="42" fill="#F1F5F9" stroke="#CBD5E1" stroke-width="2.2" rx="6"/>
<rect x="474" y="684" width="52" height="42" fill="#F1F5F9" stroke="#CBD5E1" stroke-width="2.2" rx="6"/>
<line x1="200" y1="660" x2="380" y2="684" stroke="#16A34A" stroke-width="2.5" marker-end="url(#gn)"/>
<line x1="260" y1="660" x2="440" y2="684" stroke="#16A34A" stroke-width="2.5" marker-end="url(#gn)"/>
<line x1="320" y1="660" x2="500" y2="684" stroke="#16A34A" stroke-width="2.5" marker-end="url(#gn)"/>
</svg>