<svg xmlns="http://www.w3.org/2000/svg" width="780" height="360" viewBox="0 0 780 360">
<text x="390" y="24" text-anchor="middle" font-size="17" font-weight="bold" fill="#1e293b" font-family="Arial">暴力法：放完全部皇后，最後才驗證（4⁴ = 256 種）</text>
<text x="8" y="56" font-size="13" font-weight="bold" fill="#64748B" font-family="Arial">Q1（第1行）</text>
<text x="8" y="136" font-size="13" font-weight="bold" fill="#64748B" font-family="Arial">Q2（第2行）</text>
<text x="8" y="216" font-size="13" font-weight="bold" fill="#64748B" font-family="Arial">Q3（第3行）</text>
<text x="8" y="296" font-size="13" font-weight="bold" fill="#64748B" font-family="Arial">Q4（第4行）</text>
<circle cx="160" cy="50" r="18" fill="#5B9BD5" stroke="#1e40af" stroke-width="1.8"/>
<text x="160" y="55" text-anchor="middle" font-size="15" font-weight="bold" fill="white" font-family="Arial">0</text>
<circle cx="228" cy="50" r="18" fill="#5B9BD5" stroke="#1e40af" stroke-width="1.8"/>
<text x="228" y="55" text-anchor="middle" font-size="15" font-weight="bold" fill="white" font-family="Arial">1</text>
<circle cx="296" cy="50" r="18" fill="#5B9BD5" stroke="#1e40af" stroke-width="1.8"/>
<text x="296" y="55" text-anchor="middle" font-size="15" font-weight="bold" fill="white" font-family="Arial">2</text>
<circle cx="364" cy="50" r="18" fill="#5B9BD5" stroke="#1e40af" stroke-width="1.8"/>
<text x="364" y="55" text-anchor="middle" font-size="15" font-weight="bold" fill="white" font-family="Arial">3</text>
<line x1="160" y1="68" x2="130" y2="112" stroke="#93C5FD" stroke-width="1"/>
<line x1="160" y1="68" x2="164" y2="112" stroke="#93C5FD" stroke-width="1"/>
<line x1="160" y1="68" x2="198" y2="112" stroke="#93C5FD" stroke-width="1"/>
<line x1="160" y1="68" x2="232" y2="112" stroke="#93C5FD" stroke-width="1"/>
<line x1="228" y1="68" x2="266" y2="112" stroke="#93C5FD" stroke-width="1"/>
<line x1="228" y1="68" x2="300" y2="112" stroke="#93C5FD" stroke-width="1"/>
<line x1="228" y1="68" x2="334" y2="112" stroke="#93C5FD" stroke-width="1"/>
<line x1="228" y1="68" x2="368" y2="112" stroke="#93C5FD" stroke-width="1"/>
<line x1="296" y1="68" x2="402" y2="112" stroke="#93C5FD" stroke-width="1"/>
<line x1="296" y1="68" x2="436" y2="112" stroke="#93C5FD" stroke-width="1"/>
<line x1="296" y1="68" x2="470" y2="112" stroke="#93C5FD" stroke-width="1"/>
<line x1="296" y1="68" x2="504" y2="112" stroke="#93C5FD" stroke-width="1"/>
<line x1="364" y1="68" x2="538" y2="112" stroke="#93C5FD" stroke-width="1"/>
<line x1="364" y1="68" x2="572" y2="112" stroke="#93C5FD" stroke-width="1"/>
<line x1="364" y1="68" x2="606" y2="112" stroke="#93C5FD" stroke-width="1"/>
<line x1="364" y1="68" x2="640" y2="112" stroke="#93C5FD" stroke-width="1"/>
<circle cx="130" cy="130" r="14" fill="#5B9BD5" stroke="#1e40af" stroke-width="1.8"/>
<text x="130" y="135" text-anchor="middle" font-size="13" font-weight="bold" fill="white" font-family="Arial">0</text>
<circle cx="164" cy="130" r="14" fill="#5B9BD5" stroke="#1e40af" stroke-width="1.8"/>
<text x="164" y="135" text-anchor="middle" font-size="13" font-weight="bold" fill="white" font-family="Arial">1</text>
<circle cx="198" cy="130" r="14" fill="#5B9BD5" stroke="#1e40af" stroke-width="1.8"/>
<text x="198" y="135" text-anchor="middle" font-size="13" font-weight="bold" fill="white" font-family="Arial">2</text>
<circle cx="232" cy="130" r="14" fill="#5B9BD5" stroke="#1e40af" stroke-width="1.8"/>
<text x="232" y="135" text-anchor="middle" font-size="13" font-weight="bold" fill="white" font-family="Arial">3</text>
<circle cx="266" cy="130" r="14" fill="#5B9BD5" stroke="#1e40af" stroke-width="1.8"/>
<text x="266" y="135" text-anchor="middle" font-size="13" font-weight="bold" fill="white" font-family="Arial">0</text>
<circle cx="300" cy="130" r="14" fill="#5B9BD5" stroke="#1e40af" stroke-width="1.8"/>
<text x="300" y="135" text-anchor="middle" font-size="13" font-weight="bold" fill="white" font-family="Arial">1</text>
<circle cx="334" cy="130" r="14" fill="#5B9BD5" stroke="#1e40af" stroke-width="1.8"/>
<text x="334" y="135" text-anchor="middle" font-size="13" font-weight="bold" fill="white" font-family="Arial">2</text>
<circle cx="368" cy="130" r="14" fill="#5B9BD5" stroke="#1e40af" stroke-width="1.8"/>
<text x="368" y="135" text-anchor="middle" font-size="13" font-weight="bold" fill="white" font-family="Arial">3</text>
<circle cx="402" cy="130" r="14" fill="#5B9BD5" stroke="#1e40af" stroke-width="1.8"/>
<text x="402" y="135" text-anchor="middle" font-size="13" font-weight="bold" fill="white" font-family="Arial">0</text>
<circle cx="436" cy="130" r="14" fill="#5B9BD5" stroke="#1e40af" stroke-width="1.8"/>
<text x="436" y="135" text-anchor="middle" font-size="13" font-weight="bold" fill="white" font-family="Arial">1</text>
<circle cx="470" cy="130" r="14" fill="#5B9BD5" stroke="#1e40af" stroke-width="1.8"/>
<text x="470" y="135" text-anchor="middle" font-size="13" font-weight="bold" fill="white" font-family="Arial">2</text>
<circle cx="504" cy="130" r="14" fill="#5B9BD5" stroke="#1e40af" stroke-width="1.8"/>
<text x="504" y="135" text-anchor="middle" font-size="13" font-weight="bold" fill="white" font-family="Arial">3</text>
<circle cx="538" cy="130" r="14" fill="#5B9BD5" stroke="#1e40af" stroke-width="1.8"/>
<text x="538" y="135" text-anchor="middle" font-size="13" font-weight="bold" fill="white" font-family="Arial">0</text>
<circle cx="572" cy="130" r="14" fill="#5B9BD5" stroke="#1e40af" stroke-width="1.8"/>
<text x="572" y="135" text-anchor="middle" font-size="13" font-weight="bold" fill="white" font-family="Arial">1</text>
<circle cx="606" cy="130" r="14" fill="#5B9BD5" stroke="#1e40af" stroke-width="1.8"/>
<text x="606" y="135" text-anchor="middle" font-size="13" font-weight="bold" fill="white" font-family="Arial">2</text>
<circle cx="640" cy="130" r="14" fill="#5B9BD5" stroke="#1e40af" stroke-width="1.8"/>
<text x="640" y="135" text-anchor="middle" font-size="13" font-weight="bold" fill="white" font-family="Arial">3</text>
<rect x="60" y="192" width="290" height="36" fill="#DBEAFE" stroke="#3B82F6" stroke-width="2" rx="8"/>
<text x="205" y="215" text-anchor="middle" font-size="14" font-weight="bold" fill="#1e40af" font-family="Arial">Q3：64 種放法（4¹⁶ × 4）</text>
<rect x="360" y="192" width="390" height="36" fill="#DBEAFE" stroke="#3B82F6" stroke-width="2" rx="8"/>
<text x="555" y="215" text-anchor="middle" font-size="14" font-weight="bold" fill="#1e40af" font-family="Arial">Q3：尚不檢查，繼續放 Q4</text>
<rect x="60" y="272" width="290" height="36" fill="#DBEAFE" stroke="#3B82F6" stroke-width="2" rx="8"/>
<text x="205" y="295" text-anchor="middle" font-size="14" font-weight="bold" fill="#1e40af" font-family="Arial">Q4：256 種末端→逐一驗證全部</text>
<rect x="360" y="272" width="200" height="36" fill="#FEE2E2" stroke="#EF4444" stroke-width="2" rx="8"/>
<text x="460" y="295" text-anchor="middle" font-size="14" font-weight="bold" fill="#1e40af" font-family="Arial">✗ 無效（多數）</text>
<rect x="565" y="272" width="185" height="36" fill="#DCFCE7" stroke="#22C55E" stroke-width="2" rx="8"/>
<text x="657" y="295" text-anchor="middle" font-size="14" font-weight="bold" fill="#1e40af" font-family="Arial">✓ 有效（2組）</text>
<text x="390" y="348" text-anchor="middle" font-size="13" fill="#64748B" font-family="Arial">每個節點都一路遞迴到底，最後才做 queen_ok 檢查，所有 4⁴ = 256 條路徑都走到底</text>
</svg>