<svg xmlns="http://www.w3.org/2000/svg" width="760" height="400">
<defs><marker id="arr" markerWidth="10" markerHeight="7" refX="9" refY="3.5" orient="auto"><polygon points="0,0 0,7 9,3.5" fill="#94A3B8"/></marker></defs>
<text x="380" y="24" text-anchor="middle" font-size="17" font-weight="bold" fill="#1e293b" font-family="Arial">合併排序法：分治示意圖</text>
<rect x="241" y="36" width="38" height="36" fill="#5B9BD5" stroke="#1e40af" stroke-width="1.5" rx="6"/>
<text x="260" y="60" text-anchor="middle" font-size="18" font-weight="bold" fill="white" font-family="Arial">6</text>
<rect x="281" y="36" width="38" height="36" fill="#5B9BD5" stroke="#1e40af" stroke-width="1.5" rx="6"/>
<text x="300" y="60" text-anchor="middle" font-size="18" font-weight="bold" fill="white" font-family="Arial">5</text>
<rect x="321" y="36" width="38" height="36" fill="#5B9BD5" stroke="#1e40af" stroke-width="1.5" rx="6"/>
<text x="340" y="60" text-anchor="middle" font-size="18" font-weight="bold" fill="white" font-family="Arial">7</text>
<rect x="361" y="36" width="38" height="36" fill="#5B9BD5" stroke="#1e40af" stroke-width="1.5" rx="6"/>
<text x="380" y="60" text-anchor="middle" font-size="18" font-weight="bold" fill="white" font-family="Arial">1</text>
<rect x="401" y="36" width="38" height="36" fill="#5B9BD5" stroke="#1e40af" stroke-width="1.5" rx="6"/>
<text x="420" y="60" text-anchor="middle" font-size="18" font-weight="bold" fill="white" font-family="Arial">4</text>
<rect x="441" y="36" width="38" height="36" fill="#5B9BD5" stroke="#1e40af" stroke-width="1.5" rx="6"/>
<text x="460" y="60" text-anchor="middle" font-size="18" font-weight="bold" fill="white" font-family="Arial">2</text>
<rect x="481" y="36" width="38" height="36" fill="#5B9BD5" stroke="#1e40af" stroke-width="1.5" rx="6"/>
<text x="500" y="60" text-anchor="middle" font-size="18" font-weight="bold" fill="white" font-family="Arial">3</text>
<rect x="121" y="116" width="38" height="36" fill="#5B9BD5" stroke="#1e40af" stroke-width="1.5" rx="6"/>
<text x="140" y="140" text-anchor="middle" font-size="18" font-weight="bold" fill="white" font-family="Arial">6</text>
<rect x="161" y="116" width="38" height="36" fill="#5B9BD5" stroke="#1e40af" stroke-width="1.5" rx="6"/>
<text x="180" y="140" text-anchor="middle" font-size="18" font-weight="bold" fill="white" font-family="Arial">5</text>
<rect x="201" y="116" width="38" height="36" fill="#5B9BD5" stroke="#1e40af" stroke-width="1.5" rx="6"/>
<text x="220" y="140" text-anchor="middle" font-size="18" font-weight="bold" fill="white" font-family="Arial">7</text>
<rect x="241" y="116" width="38" height="36" fill="#5B9BD5" stroke="#1e40af" stroke-width="1.5" rx="6"/>
<text x="260" y="140" text-anchor="middle" font-size="18" font-weight="bold" fill="white" font-family="Arial">1</text>
<rect x="501" y="116" width="38" height="36" fill="#5B9BD5" stroke="#1e40af" stroke-width="1.5" rx="6"/>
<text x="520" y="140" text-anchor="middle" font-size="18" font-weight="bold" fill="white" font-family="Arial">4</text>
<rect x="541" y="116" width="38" height="36" fill="#5B9BD5" stroke="#1e40af" stroke-width="1.5" rx="6"/>
<text x="560" y="140" text-anchor="middle" font-size="18" font-weight="bold" fill="white" font-family="Arial">2</text>
<rect x="581" y="116" width="38" height="36" fill="#5B9BD5" stroke="#1e40af" stroke-width="1.5" rx="6"/>
<text x="600" y="140" text-anchor="middle" font-size="18" font-weight="bold" fill="white" font-family="Arial">3</text>
<line x1="380" y1="72" x2="206" y2="115" stroke="#94A3B8" stroke-width="1.8" marker-end="url(#arr)"/>
<line x1="380" y1="72" x2="554" y2="115" stroke="#94A3B8" stroke-width="1.8" marker-end="url(#arr)"/>
<rect x="61" y="196" width="38" height="36" fill="#5B9BD5" stroke="#1e40af" stroke-width="1.5" rx="6"/>
<text x="80" y="220" text-anchor="middle" font-size="18" font-weight="bold" fill="white" font-family="Arial">6</text>
<rect x="101" y="196" width="38" height="36" fill="#5B9BD5" stroke="#1e40af" stroke-width="1.5" rx="6"/>
<text x="120" y="220" text-anchor="middle" font-size="18" font-weight="bold" fill="white" font-family="Arial">5</text>
<rect x="231" y="196" width="38" height="36" fill="#5B9BD5" stroke="#1e40af" stroke-width="1.5" rx="6"/>
<text x="250" y="220" text-anchor="middle" font-size="18" font-weight="bold" fill="white" font-family="Arial">7</text>
<rect x="271" y="196" width="38" height="36" fill="#5B9BD5" stroke="#1e40af" stroke-width="1.5" rx="6"/>
<text x="290" y="220" text-anchor="middle" font-size="18" font-weight="bold" fill="white" font-family="Arial">1</text>
<rect x="451" y="196" width="38" height="36" fill="#5B9BD5" stroke="#1e40af" stroke-width="1.5" rx="6"/>
<text x="470" y="220" text-anchor="middle" font-size="18" font-weight="bold" fill="white" font-family="Arial">4</text>
<rect x="491" y="196" width="38" height="36" fill="#5B9BD5" stroke="#1e40af" stroke-width="1.5" rx="6"/>
<text x="510" y="220" text-anchor="middle" font-size="18" font-weight="bold" fill="white" font-family="Arial">2</text>
<rect x="601" y="196" width="38" height="36" fill="#5B9BD5" stroke="#1e40af" stroke-width="1.5" rx="6"/>
<text x="620" y="220" text-anchor="middle" font-size="18" font-weight="bold" fill="white" font-family="Arial">3</text>
<line x1="200" y1="152" x2="105" y2="194" stroke="#94A3B8" stroke-width="1.8" marker-end="url(#arr)"/>
<line x1="200" y1="152" x2="265" y2="193" stroke="#94A3B8" stroke-width="1.8" marker-end="url(#arr)"/>
<line x1="560" y1="152" x2="495" y2="193" stroke="#94A3B8" stroke-width="1.8" marker-end="url(#arr)"/>
<line x1="560" y1="152" x2="615" y2="192" stroke="#94A3B8" stroke-width="1.8" marker-end="url(#arr)"/>
<rect x="31" y="276" width="38" height="36" fill="#5B9BD5" stroke="#1e40af" stroke-width="1.5" rx="6"/>
<text x="50" y="300" text-anchor="middle" font-size="18" font-weight="bold" fill="white" font-family="Arial">6</text>
<rect x="81" y="276" width="38" height="36" fill="#5B9BD5" stroke="#1e40af" stroke-width="1.5" rx="6"/>
<text x="100" y="300" text-anchor="middle" font-size="18" font-weight="bold" fill="white" font-family="Arial">5</text>
<rect x="211" y="276" width="38" height="36" fill="#5B9BD5" stroke="#1e40af" stroke-width="1.5" rx="6"/>
<text x="230" y="300" text-anchor="middle" font-size="18" font-weight="bold" fill="white" font-family="Arial">7</text>
<rect x="261" y="276" width="38" height="36" fill="#5B9BD5" stroke="#1e40af" stroke-width="1.5" rx="6"/>
<text x="280" y="300" text-anchor="middle" font-size="18" font-weight="bold" fill="white" font-family="Arial">1</text>
<rect x="431" y="276" width="38" height="36" fill="#5B9BD5" stroke="#1e40af" stroke-width="1.5" rx="6"/>
<text x="450" y="300" text-anchor="middle" font-size="18" font-weight="bold" fill="white" font-family="Arial">4</text>
<rect x="481" y="276" width="38" height="36" fill="#5B9BD5" stroke="#1e40af" stroke-width="1.5" rx="6"/>
<text x="500" y="300" text-anchor="middle" font-size="18" font-weight="bold" fill="white" font-family="Arial">2</text>
<line x1="100" y1="232" x2="59" y2="272" stroke="#94A3B8" stroke-width="1.8" marker-end="url(#arr)"/>
<line x1="100" y1="232" x2="100" y2="270" stroke="#94A3B8" stroke-width="1.8" marker-end="url(#arr)"/>
<line x1="270" y1="232" x2="239" y2="271" stroke="#94A3B8" stroke-width="1.8" marker-end="url(#arr)"/>
<line x1="270" y1="232" x2="283" y2="270" stroke="#94A3B8" stroke-width="1.8" marker-end="url(#arr)"/>
<line x1="490" y1="232" x2="459" y2="271" stroke="#94A3B8" stroke-width="1.8" marker-end="url(#arr)"/>
<line x1="490" y1="232" x2="503" y2="270" stroke="#94A3B8" stroke-width="1.8" marker-end="url(#arr)"/>
<text x="380" y="340" text-anchor="middle" font-size="14" fill="#059669" font-weight="bold" font-family="Arial">↓ 合併（Merge）↓</text>
<rect x="241" y="358" width="38" height="36" fill="#34D399" stroke="#1e40af" stroke-width="1.5" rx="6"/>
<text x="260" y="382" text-anchor="middle" font-size="18" font-weight="bold" fill="white" font-family="Arial">1</text>
<rect x="281" y="358" width="38" height="36" fill="#34D399" stroke="#1e40af" stroke-width="1.5" rx="6"/>
<text x="300" y="382" text-anchor="middle" font-size="18" font-weight="bold" fill="white" font-family="Arial">2</text>
<rect x="321" y="358" width="38" height="36" fill="#34D399" stroke="#1e40af" stroke-width="1.5" rx="6"/>
<text x="340" y="382" text-anchor="middle" font-size="18" font-weight="bold" fill="white" font-family="Arial">3</text>
<rect x="361" y="358" width="38" height="36" fill="#34D399" stroke="#1e40af" stroke-width="1.5" rx="6"/>
<text x="380" y="382" text-anchor="middle" font-size="18" font-weight="bold" fill="white" font-family="Arial">4</text>
<rect x="401" y="358" width="38" height="36" fill="#34D399" stroke="#1e40af" stroke-width="1.5" rx="6"/>
<text x="420" y="382" text-anchor="middle" font-size="18" font-weight="bold" fill="white" font-family="Arial">5</text>
<rect x="441" y="358" width="38" height="36" fill="#34D399" stroke="#1e40af" stroke-width="1.5" rx="6"/>
<text x="460" y="382" text-anchor="middle" font-size="18" font-weight="bold" fill="white" font-family="Arial">6</text>
<rect x="481" y="358" width="38" height="36" fill="#34D399" stroke="#1e40af" stroke-width="1.5" rx="6"/>
<text x="500" y="382" text-anchor="middle" font-size="18" font-weight="bold" fill="white" font-family="Arial">7</text>
</svg>