<svg xmlns="http://www.w3.org/2000/svg" width="740" height="148">
<defs>
  <marker id="arr" markerWidth="12" markerHeight="9"
          refX="11" refY="4.5" orient="auto">
    <polygon points="0,0 0,9 11,4.5" fill="#64748B"/>
  </marker>
  <marker id="arr_up" markerWidth="12" markerHeight="9"
          refX="6" refY="9" orient="auto">
    <polygon points="0,9 12,9 6,0" fill="#555"/>
  </marker>
</defs>
<text x="370" y="28" text-anchor="middle" font-size="18" font-weight="bold" fill="#1e293b" font-family="Arial">快速排序完成！陣列由小到大排列</text>
<text x="111" y="44" text-anchor="middle" font-size="15" font-weight="bold" fill="#475569" font-family="monospace">[0]</text>
<text x="185" y="44" text-anchor="middle" font-size="15" font-weight="bold" fill="#475569" font-family="monospace">[1]</text>
<text x="259" y="44" text-anchor="middle" font-size="15" font-weight="bold" fill="#475569" font-family="monospace">[2]</text>
<text x="333" y="44" text-anchor="middle" font-size="15" font-weight="bold" fill="#475569" font-family="monospace">[3]</text>
<text x="407" y="44" text-anchor="middle" font-size="15" font-weight="bold" fill="#475569" font-family="monospace">[4]</text>
<text x="481" y="44" text-anchor="middle" font-size="15" font-weight="bold" fill="#475569" font-family="monospace">[5]</text>
<text x="555" y="44" text-anchor="middle" font-size="15" font-weight="bold" fill="#475569" font-family="monospace">[6]</text>
<text x="629" y="44" text-anchor="middle" font-size="15" font-weight="bold" fill="#475569" font-family="monospace">[7]</text>
<rect x="76" y="60" width="70" height="54" fill="#34D399" stroke="#059669" stroke-width="2.5" rx="9"/><text x="111" y="96" text-anchor="middle" font-size="26" font-weight="bold" fill="#064e3b" font-family="Arial">a</text>
<rect x="150" y="60" width="70" height="54" fill="#34D399" stroke="#059669" stroke-width="2.5" rx="9"/><text x="185" y="96" text-anchor="middle" font-size="26" font-weight="bold" fill="#064e3b" font-family="Arial">b</text>
<rect x="224" y="60" width="70" height="54" fill="#34D399" stroke="#059669" stroke-width="2.5" rx="9"/><text x="259" y="96" text-anchor="middle" font-size="26" font-weight="bold" fill="#064e3b" font-family="Arial">c</text>
<rect x="298" y="60" width="70" height="54" fill="#34D399" stroke="#059669" stroke-width="2.5" rx="9"/><text x="333" y="96" text-anchor="middle" font-size="26" font-weight="bold" fill="#064e3b" font-family="Arial">d</text>
<rect x="372" y="60" width="70" height="54" fill="#34D399" stroke="#059669" stroke-width="2.5" rx="9"/><text x="407" y="96" text-anchor="middle" font-size="26" font-weight="bold" fill="#064e3b" font-family="Arial">e</text>
<rect x="446" y="60" width="70" height="54" fill="#34D399" stroke="#059669" stroke-width="2.5" rx="9"/><text x="481" y="96" text-anchor="middle" font-size="26" font-weight="bold" fill="#064e3b" font-family="Arial">f</text>
<rect x="520" y="60" width="70" height="54" fill="#34D399" stroke="#059669" stroke-width="2.5" rx="9"/><text x="555" y="96" text-anchor="middle" font-size="26" font-weight="bold" fill="#064e3b" font-family="Arial">g</text>
<rect x="594" y="60" width="70" height="54" fill="#34D399" stroke="#059669" stroke-width="2.5" rx="9"/><text x="629" y="96" text-anchor="middle" font-size="26" font-weight="bold" fill="#064e3b" font-family="Arial">h</text>
</svg>