<svg xmlns="http://www.w3.org/2000/svg" width="760" height="280"><text x="380" y="26" text-anchor="middle" font-size="17" font-weight="bold" fill="#1e293b" font-family="Arial">個位數排序：依個位數分入 0–9 號桶</text><rect x="43" y="40" width="62" height="34" fill="#3B82F6" stroke="#1D4ED8" stroke-width="1.5" rx="6"/><text x="74" y="63" text-anchor="middle" font-size="18" font-weight="bold" fill="white" font-family="Arial">0</text><rect x="111" y="40" width="62" height="34" fill="#3B82F6" stroke="#1D4ED8" stroke-width="1.5" rx="6"/><text x="142" y="63" text-anchor="middle" font-size="18" font-weight="bold" fill="white" font-family="Arial">1</text><rect x="111" y="84" width="62" height="48" fill="#FEF3C7" stroke="#F59E0B" stroke-width="1.5" rx="6"/><text x="142" y="115" text-anchor="middle" font-size="15" font-weight="bold" fill="#92400E" font-family="Arial">321</text><rect x="111" y="136" width="62" height="48" fill="#FEF3C7" stroke="#F59E0B" stroke-width="1.5" rx="6"/><text x="142" y="167" text-anchor="middle" font-size="15" font-weight="bold" fill="#92400E" font-family="Arial">231</text><rect x="111" y="188" width="62" height="48" fill="#FEF3C7" stroke="#F59E0B" stroke-width="1.5" rx="6"/><text x="142" y="219" text-anchor="middle" font-size="15" font-weight="bold" fill="#92400E" font-family="Arial">111</text><rect x="111" y="240" width="62" height="48" fill="#FEF3C7" stroke="#F59E0B" stroke-width="1.5" rx="6"/><text x="142" y="271" text-anchor="middle" font-size="15" font-weight="bold" fill="#92400E" font-family="Arial">221</text><rect x="179" y="40" width="62" height="34" fill="#3B82F6" stroke="#1D4ED8" stroke-width="1.5" rx="6"/><text x="210" y="63" text-anchor="middle" font-size="18" font-weight="bold" fill="white" font-family="Arial">2</text><rect x="179" y="84" width="62" height="48" fill="#FEF3C7" stroke="#F59E0B" stroke-width="1.5" rx="6"/><text x="210" y="115" text-anchor="middle" font-size="15" font-weight="bold" fill="#92400E" font-family="Arial">232</text><rect x="179" y="136" width="62" height="48" fill="#FEF3C7" stroke="#F59E0B" stroke-width="1.5" rx="6"/><text x="210" y="167" text-anchor="middle" font-size="15" font-weight="bold" fill="#92400E" font-family="Arial">112</text><rect x="179" y="188" width="62" height="48" fill="#FEF3C7" stroke="#F59E0B" stroke-width="1.5" rx="6"/><text x="210" y="219" text-anchor="middle" font-size="15" font-weight="bold" fill="#92400E" font-family="Arial">132</text><rect x="247" y="40" width="62" height="34" fill="#3B82F6" stroke="#1D4ED8" stroke-width="1.5" rx="6"/><text x="278" y="63" text-anchor="middle" font-size="18" font-weight="bold" fill="white" font-family="Arial">3</text><rect x="247" y="84" width="62" height="48" fill="#FEF3C7" stroke="#F59E0B" stroke-width="1.5" rx="6"/><text x="278" y="115" text-anchor="middle" font-size="15" font-weight="bold" fill="#92400E" font-family="Arial">213</text><rect x="247" y="136" width="62" height="48" fill="#FEF3C7" stroke="#F59E0B" stroke-width="1.5" rx="6"/><text x="278" y="167" text-anchor="middle" font-size="15" font-weight="bold" fill="#92400E" font-family="Arial">123</text><rect x="315" y="40" width="62" height="34" fill="#3B82F6" stroke="#1D4ED8" stroke-width="1.5" rx="6"/><text x="346" y="63" text-anchor="middle" font-size="18" font-weight="bold" fill="white" font-family="Arial">4</text><rect x="383" y="40" width="62" height="34" fill="#3B82F6" stroke="#1D4ED8" stroke-width="1.5" rx="6"/><text x="414" y="63" text-anchor="middle" font-size="18" font-weight="bold" fill="white" font-family="Arial">5</text><rect x="451" y="40" width="62" height="34" fill="#3B82F6" stroke="#1D4ED8" stroke-width="1.5" rx="6"/><text x="482" y="63" text-anchor="middle" font-size="18" font-weight="bold" fill="white" font-family="Arial">6</text><rect x="519" y="40" width="62" height="34" fill="#3B82F6" stroke="#1D4ED8" stroke-width="1.5" rx="6"/><text x="550" y="63" text-anchor="middle" font-size="18" font-weight="bold" fill="white" font-family="Arial">7</text><rect x="587" y="40" width="62" height="34" fill="#3B82F6" stroke="#1D4ED8" stroke-width="1.5" rx="6"/><text x="618" y="63" text-anchor="middle" font-size="18" font-weight="bold" fill="white" font-family="Arial">8</text><rect x="655" y="40" width="62" height="34" fill="#3B82F6" stroke="#1D4ED8" stroke-width="1.5" rx="6"/><text x="686" y="63" text-anchor="middle" font-size="18" font-weight="bold" fill="white" font-family="Arial">9</text><text x="380" y="254" text-anchor="middle" font-size="14" fill="#475569" font-family="Arial">按 0→9 收集：321  231  111  221  232  112  132  213  123</text></svg>