<svg xmlns="http://www.w3.org/2000/svg" width="1716" height="390" viewBox="0 0 1716 390">
<text x="858" y="24" text-anchor="middle" font-size="17" font-weight="bold" fill="#1e293b" font-family="Arial">回溯法：發現衝突立即剪枝，共探索 60 個節點（暴力法需 256）</text>
<text x="4" y="58" font-size="12" font-weight="bold" fill="#64748B" font-family="Arial">Q1</text>
<text x="4" y="151" font-size="12" font-weight="bold" fill="#64748B" font-family="Arial">Q2</text>
<text x="4" y="244" font-size="12" font-weight="bold" fill="#64748B" font-family="Arial">Q3</text>
<text x="4" y="331" font-size="12" font-weight="bold" fill="#64748B" font-family="Arial">Q4</text>
<line x1="264.0" y1="69" x2="48.0" y2="128" stroke="#CBD5E1" stroke-width="1.2"/>
<line x1="264.0" y1="69" x2="84.0" y2="128" stroke="#CBD5E1" stroke-width="1.2"/>
<line x1="264.0" y1="69" x2="174.0" y2="128" stroke="#94A3B8" stroke-width="1.2"/>
<line x1="174.0" y1="162" x2="120.0" y2="221" stroke="#CBD5E1" stroke-width="1.2"/>
<line x1="174.0" y1="162" x2="156.0" y2="221" stroke="#CBD5E1" stroke-width="1.2"/>
<line x1="174.0" y1="162" x2="192.0" y2="221" stroke="#CBD5E1" stroke-width="1.2"/>
<line x1="174.0" y1="162" x2="228.0" y2="221" stroke="#CBD5E1" stroke-width="1.2"/>
<line x1="264.0" y1="69" x2="372.0" y2="128" stroke="#94A3B8" stroke-width="1.2"/>
<line x1="372.0" y1="162" x2="264.0" y2="221" stroke="#CBD5E1" stroke-width="1.2"/>
<line x1="372.0" y1="162" x2="354.0" y2="221" stroke="#94A3B8" stroke-width="1.2"/>
<line x1="354.0" y1="255" x2="300.0" y2="308" stroke="#CBD5E1" stroke-width="1.2"/>
<line x1="354.0" y1="255" x2="336.0" y2="308" stroke="#CBD5E1" stroke-width="1.2"/>
<line x1="354.0" y1="255" x2="372.0" y2="308" stroke="#CBD5E1" stroke-width="1.2"/>
<line x1="354.0" y1="255" x2="408.0" y2="308" stroke="#CBD5E1" stroke-width="1.2"/>
<line x1="372.0" y1="162" x2="444.0" y2="221" stroke="#CBD5E1" stroke-width="1.2"/>
<line x1="372.0" y1="162" x2="480.0" y2="221" stroke="#CBD5E1" stroke-width="1.2"/>
<line x1="678.0" y1="69" x2="516.0" y2="128" stroke="#CBD5E1" stroke-width="1.2"/>
<line x1="678.0" y1="69" x2="552.0" y2="128" stroke="#CBD5E1" stroke-width="1.2"/>
<line x1="678.0" y1="69" x2="588.0" y2="128" stroke="#CBD5E1" stroke-width="1.2"/>
<line x1="678.0" y1="69" x2="732.0" y2="128" stroke="#94A3B8" stroke-width="1.2"/>
<line x1="732.0" y1="162" x2="678.0" y2="221" stroke="#94A3B8" stroke-width="1.2"/>
<line x1="678.0" y1="255" x2="624.0" y2="308" stroke="#CBD5E1" stroke-width="1.2"/>
<line x1="678.0" y1="255" x2="660.0" y2="308" stroke="#CBD5E1" stroke-width="1.2"/>
<line x1="678.0" y1="255" x2="696.0" y2="308" stroke="#94A3B8" stroke-width="1.2"/>
<line x1="678.0" y1="255" x2="732.0" y2="308" stroke="#CBD5E1" stroke-width="1.2"/>
<line x1="732.0" y1="162" x2="768.0" y2="221" stroke="#CBD5E1" stroke-width="1.2"/>
<line x1="732.0" y1="162" x2="804.0" y2="221" stroke="#CBD5E1" stroke-width="1.2"/>
<line x1="732.0" y1="162" x2="840.0" y2="221" stroke="#CBD5E1" stroke-width="1.2"/>
<line x1="1038.0" y1="69" x2="984.0" y2="128" stroke="#94A3B8" stroke-width="1.2"/>
<line x1="984.0" y1="162" x2="876.0" y2="221" stroke="#CBD5E1" stroke-width="1.2"/>
<line x1="984.0" y1="162" x2="912.0" y2="221" stroke="#CBD5E1" stroke-width="1.2"/>
<line x1="984.0" y1="162" x2="948.0" y2="221" stroke="#CBD5E1" stroke-width="1.2"/>
<line x1="984.0" y1="162" x2="1038.0" y2="221" stroke="#94A3B8" stroke-width="1.2"/>
<line x1="1038.0" y1="255" x2="984.0" y2="308" stroke="#CBD5E1" stroke-width="1.2"/>
<line x1="1038.0" y1="255" x2="1020.0" y2="308" stroke="#94A3B8" stroke-width="1.2"/>
<line x1="1038.0" y1="255" x2="1056.0" y2="308" stroke="#CBD5E1" stroke-width="1.2"/>
<line x1="1038.0" y1="255" x2="1092.0" y2="308" stroke="#CBD5E1" stroke-width="1.2"/>
<line x1="1038.0" y1="69" x2="1128.0" y2="128" stroke="#CBD5E1" stroke-width="1.2"/>
<line x1="1038.0" y1="69" x2="1164.0" y2="128" stroke="#CBD5E1" stroke-width="1.2"/>
<line x1="1038.0" y1="69" x2="1200.0" y2="128" stroke="#CBD5E1" stroke-width="1.2"/>
<line x1="1452.0" y1="69" x2="1344.0" y2="128" stroke="#94A3B8" stroke-width="1.2"/>
<line x1="1344.0" y1="162" x2="1236.0" y2="221" stroke="#CBD5E1" stroke-width="1.2"/>
<line x1="1344.0" y1="162" x2="1272.0" y2="221" stroke="#CBD5E1" stroke-width="1.2"/>
<line x1="1344.0" y1="162" x2="1362.0" y2="221" stroke="#94A3B8" stroke-width="1.2"/>
<line x1="1362.0" y1="255" x2="1308.0" y2="308" stroke="#CBD5E1" stroke-width="1.2"/>
<line x1="1362.0" y1="255" x2="1344.0" y2="308" stroke="#CBD5E1" stroke-width="1.2"/>
<line x1="1362.0" y1="255" x2="1380.0" y2="308" stroke="#CBD5E1" stroke-width="1.2"/>
<line x1="1362.0" y1="255" x2="1416.0" y2="308" stroke="#CBD5E1" stroke-width="1.2"/>
<line x1="1344.0" y1="162" x2="1452.0" y2="221" stroke="#CBD5E1" stroke-width="1.2"/>
<line x1="1452.0" y1="69" x2="1542.0" y2="128" stroke="#94A3B8" stroke-width="1.2"/>
<line x1="1542.0" y1="162" x2="1488.0" y2="221" stroke="#CBD5E1" stroke-width="1.2"/>
<line x1="1542.0" y1="162" x2="1524.0" y2="221" stroke="#CBD5E1" stroke-width="1.2"/>
<line x1="1542.0" y1="162" x2="1560.0" y2="221" stroke="#CBD5E1" stroke-width="1.2"/>
<line x1="1542.0" y1="162" x2="1596.0" y2="221" stroke="#CBD5E1" stroke-width="1.2"/>
<line x1="1452.0" y1="69" x2="1632.0" y2="128" stroke="#CBD5E1" stroke-width="1.2"/>
<line x1="1452.0" y1="69" x2="1668.0" y2="128" stroke="#CBD5E1" stroke-width="1.2"/>
<circle cx="264.0" cy="52" r="17" fill="#3B82F6" stroke="#1e3a8a" stroke-width="2"/>
<text x="264.0" y="58" text-anchor="middle" font-size="14" font-weight="bold" fill="white" font-family="Arial">0</text>
<circle cx="48.0" cy="145" r="17" fill="#FECACA" stroke="#EF4444" stroke-width="2"/>
<text x="48.0" y="151" text-anchor="middle" font-size="14" font-weight="bold" fill="#991B1B" font-family="Arial">0</text>
<text x="64.0" y="137" font-size="12" fill="#EF4444" font-weight="bold">✗</text>
<circle cx="84.0" cy="145" r="17" fill="#FECACA" stroke="#EF4444" stroke-width="2"/>
<text x="84.0" y="151" text-anchor="middle" font-size="14" font-weight="bold" fill="#991B1B" font-family="Arial">1</text>
<text x="100.0" y="137" font-size="12" fill="#EF4444" font-weight="bold">✗</text>
<circle cx="174.0" cy="145" r="17" fill="#F97316" stroke="#1e3a8a" stroke-width="2"/>
<text x="174.0" y="151" text-anchor="middle" font-size="14" font-weight="bold" fill="white" font-family="Arial">2</text>
<circle cx="120.0" cy="238" r="17" fill="#FECACA" stroke="#EF4444" stroke-width="2"/>
<text x="120.0" y="244" text-anchor="middle" font-size="14" font-weight="bold" fill="#991B1B" font-family="Arial">0</text>
<text x="136.0" y="230" font-size="12" fill="#EF4444" font-weight="bold">✗</text>
<circle cx="156.0" cy="238" r="17" fill="#FECACA" stroke="#EF4444" stroke-width="2"/>
<text x="156.0" y="244" text-anchor="middle" font-size="14" font-weight="bold" fill="#991B1B" font-family="Arial">1</text>
<text x="172.0" y="230" font-size="12" fill="#EF4444" font-weight="bold">✗</text>
<circle cx="192.0" cy="238" r="17" fill="#FECACA" stroke="#EF4444" stroke-width="2"/>
<text x="192.0" y="244" text-anchor="middle" font-size="14" font-weight="bold" fill="#991B1B" font-family="Arial">2</text>
<text x="208.0" y="230" font-size="12" fill="#EF4444" font-weight="bold">✗</text>
<circle cx="228.0" cy="238" r="17" fill="#FECACA" stroke="#EF4444" stroke-width="2"/>
<text x="228.0" y="244" text-anchor="middle" font-size="14" font-weight="bold" fill="#991B1B" font-family="Arial">3</text>
<text x="244.0" y="230" font-size="12" fill="#EF4444" font-weight="bold">✗</text>
<circle cx="372.0" cy="145" r="17" fill="#22C55E" stroke="#1e3a8a" stroke-width="2"/>
<text x="372.0" y="151" text-anchor="middle" font-size="14" font-weight="bold" fill="white" font-family="Arial">3</text>
<circle cx="264.0" cy="238" r="17" fill="#FECACA" stroke="#EF4444" stroke-width="2"/>
<text x="264.0" y="244" text-anchor="middle" font-size="14" font-weight="bold" fill="#991B1B" font-family="Arial">0</text>
<text x="280.0" y="230" font-size="12" fill="#EF4444" font-weight="bold">✗</text>
<circle cx="354.0" cy="238" r="17" fill="#8B5CF6" stroke="#1e3a8a" stroke-width="2"/>
<text x="354.0" y="244" text-anchor="middle" font-size="14" font-weight="bold" fill="white" font-family="Arial">1</text>
<circle cx="300.0" cy="325" r="17" fill="#FECACA" stroke="#EF4444" stroke-width="2"/>
<text x="300.0" y="331" text-anchor="middle" font-size="14" font-weight="bold" fill="#991B1B" font-family="Arial">0</text>
<text x="316.0" y="317" font-size="12" fill="#EF4444" font-weight="bold">✗</text>
<circle cx="336.0" cy="325" r="17" fill="#FECACA" stroke="#EF4444" stroke-width="2"/>
<text x="336.0" y="331" text-anchor="middle" font-size="14" font-weight="bold" fill="#991B1B" font-family="Arial">1</text>
<text x="352.0" y="317" font-size="12" fill="#EF4444" font-weight="bold">✗</text>
<circle cx="372.0" cy="325" r="17" fill="#FECACA" stroke="#EF4444" stroke-width="2"/>
<text x="372.0" y="331" text-anchor="middle" font-size="14" font-weight="bold" fill="#991B1B" font-family="Arial">2</text>
<text x="388.0" y="317" font-size="12" fill="#EF4444" font-weight="bold">✗</text>
<circle cx="408.0" cy="325" r="17" fill="#FECACA" stroke="#EF4444" stroke-width="2"/>
<text x="408.0" y="331" text-anchor="middle" font-size="14" font-weight="bold" fill="#991B1B" font-family="Arial">3</text>
<text x="424.0" y="317" font-size="12" fill="#EF4444" font-weight="bold">✗</text>
<circle cx="444.0" cy="238" r="17" fill="#FECACA" stroke="#EF4444" stroke-width="2"/>
<text x="444.0" y="244" text-anchor="middle" font-size="14" font-weight="bold" fill="#991B1B" font-family="Arial">2</text>
<text x="460.0" y="230" font-size="12" fill="#EF4444" font-weight="bold">✗</text>
<circle cx="480.0" cy="238" r="17" fill="#FECACA" stroke="#EF4444" stroke-width="2"/>
<text x="480.0" y="244" text-anchor="middle" font-size="14" font-weight="bold" fill="#991B1B" font-family="Arial">3</text>
<text x="496.0" y="230" font-size="12" fill="#EF4444" font-weight="bold">✗</text>
<circle cx="678.0" cy="52" r="17" fill="#8B5CF6" stroke="#1e3a8a" stroke-width="2"/>
<text x="678.0" y="58" text-anchor="middle" font-size="14" font-weight="bold" fill="white" font-family="Arial">1</text>
<circle cx="516.0" cy="145" r="17" fill="#FECACA" stroke="#EF4444" stroke-width="2"/>
<text x="516.0" y="151" text-anchor="middle" font-size="14" font-weight="bold" fill="#991B1B" font-family="Arial">0</text>
<text x="532.0" y="137" font-size="12" fill="#EF4444" font-weight="bold">✗</text>
<circle cx="552.0" cy="145" r="17" fill="#FECACA" stroke="#EF4444" stroke-width="2"/>
<text x="552.0" y="151" text-anchor="middle" font-size="14" font-weight="bold" fill="#991B1B" font-family="Arial">1</text>
<text x="568.0" y="137" font-size="12" fill="#EF4444" font-weight="bold">✗</text>
<circle cx="588.0" cy="145" r="17" fill="#FECACA" stroke="#EF4444" stroke-width="2"/>
<text x="588.0" y="151" text-anchor="middle" font-size="14" font-weight="bold" fill="#991B1B" font-family="Arial">2</text>
<text x="604.0" y="137" font-size="12" fill="#EF4444" font-weight="bold">✗</text>
<circle cx="732.0" cy="145" r="17" fill="#22C55E" stroke="#1e3a8a" stroke-width="2"/>
<text x="732.0" y="151" text-anchor="middle" font-size="14" font-weight="bold" fill="white" font-family="Arial">3</text>
<circle cx="678.0" cy="238" r="17" fill="#3B82F6" stroke="#1e3a8a" stroke-width="2"/>
<text x="678.0" y="244" text-anchor="middle" font-size="14" font-weight="bold" fill="white" font-family="Arial">0</text>
<circle cx="624.0" cy="325" r="17" fill="#FECACA" stroke="#EF4444" stroke-width="2"/>
<text x="624.0" y="331" text-anchor="middle" font-size="14" font-weight="bold" fill="#991B1B" font-family="Arial">0</text>
<text x="640.0" y="317" font-size="12" fill="#EF4444" font-weight="bold">✗</text>
<circle cx="660.0" cy="325" r="17" fill="#FECACA" stroke="#EF4444" stroke-width="2"/>
<text x="660.0" y="331" text-anchor="middle" font-size="14" font-weight="bold" fill="#991B1B" font-family="Arial">1</text>
<text x="676.0" y="317" font-size="12" fill="#EF4444" font-weight="bold">✗</text>
<circle cx="696.0" cy="325" r="17" fill="#FBBF24" stroke="#D97706" stroke-width="2"/>
<text x="696.0" y="331" text-anchor="middle" font-size="14" font-weight="bold" fill="#78350F" font-family="Arial">2</text>
<text x="696.0" y="358" text-anchor="middle" font-size="12" fill="#92400E" font-weight="bold">⭐解</text>
<circle cx="732.0" cy="325" r="17" fill="#FECACA" stroke="#EF4444" stroke-width="2"/>
<text x="732.0" y="331" text-anchor="middle" font-size="14" font-weight="bold" fill="#991B1B" font-family="Arial">3</text>
<text x="748.0" y="317" font-size="12" fill="#EF4444" font-weight="bold">✗</text>
<circle cx="768.0" cy="238" r="17" fill="#FECACA" stroke="#EF4444" stroke-width="2"/>
<text x="768.0" y="244" text-anchor="middle" font-size="14" font-weight="bold" fill="#991B1B" font-family="Arial">1</text>
<text x="784.0" y="230" font-size="12" fill="#EF4444" font-weight="bold">✗</text>
<circle cx="804.0" cy="238" r="17" fill="#FECACA" stroke="#EF4444" stroke-width="2"/>
<text x="804.0" y="244" text-anchor="middle" font-size="14" font-weight="bold" fill="#991B1B" font-family="Arial">2</text>
<text x="820.0" y="230" font-size="12" fill="#EF4444" font-weight="bold">✗</text>
<circle cx="840.0" cy="238" r="17" fill="#FECACA" stroke="#EF4444" stroke-width="2"/>
<text x="840.0" y="244" text-anchor="middle" font-size="14" font-weight="bold" fill="#991B1B" font-family="Arial">3</text>
<text x="856.0" y="230" font-size="12" fill="#EF4444" font-weight="bold">✗</text>
<circle cx="1038.0" cy="52" r="17" fill="#F97316" stroke="#1e3a8a" stroke-width="2"/>
<text x="1038.0" y="58" text-anchor="middle" font-size="14" font-weight="bold" fill="white" font-family="Arial">2</text>
<circle cx="984.0" cy="145" r="17" fill="#3B82F6" stroke="#1e3a8a" stroke-width="2"/>
<text x="984.0" y="151" text-anchor="middle" font-size="14" font-weight="bold" fill="white" font-family="Arial">0</text>
<circle cx="876.0" cy="238" r="17" fill="#FECACA" stroke="#EF4444" stroke-width="2"/>
<text x="876.0" y="244" text-anchor="middle" font-size="14" font-weight="bold" fill="#991B1B" font-family="Arial">0</text>
<text x="892.0" y="230" font-size="12" fill="#EF4444" font-weight="bold">✗</text>
<circle cx="912.0" cy="238" r="17" fill="#FECACA" stroke="#EF4444" stroke-width="2"/>
<text x="912.0" y="244" text-anchor="middle" font-size="14" font-weight="bold" fill="#991B1B" font-family="Arial">1</text>
<text x="928.0" y="230" font-size="12" fill="#EF4444" font-weight="bold">✗</text>
<circle cx="948.0" cy="238" r="17" fill="#FECACA" stroke="#EF4444" stroke-width="2"/>
<text x="948.0" y="244" text-anchor="middle" font-size="14" font-weight="bold" fill="#991B1B" font-family="Arial">2</text>
<text x="964.0" y="230" font-size="12" fill="#EF4444" font-weight="bold">✗</text>
<circle cx="1038.0" cy="238" r="17" fill="#22C55E" stroke="#1e3a8a" stroke-width="2"/>
<text x="1038.0" y="244" text-anchor="middle" font-size="14" font-weight="bold" fill="white" font-family="Arial">3</text>
<circle cx="984.0" cy="325" r="17" fill="#FECACA" stroke="#EF4444" stroke-width="2"/>
<text x="984.0" y="331" text-anchor="middle" font-size="14" font-weight="bold" fill="#991B1B" font-family="Arial">0</text>
<text x="1000.0" y="317" font-size="12" fill="#EF4444" font-weight="bold">✗</text>
<circle cx="1020.0" cy="325" r="17" fill="#FBBF24" stroke="#D97706" stroke-width="2"/>
<text x="1020.0" y="331" text-anchor="middle" font-size="14" font-weight="bold" fill="#78350F" font-family="Arial">1</text>
<text x="1020.0" y="358" text-anchor="middle" font-size="12" fill="#92400E" font-weight="bold">⭐解</text>
<circle cx="1056.0" cy="325" r="17" fill="#FECACA" stroke="#EF4444" stroke-width="2"/>
<text x="1056.0" y="331" text-anchor="middle" font-size="14" font-weight="bold" fill="#991B1B" font-family="Arial">2</text>
<text x="1072.0" y="317" font-size="12" fill="#EF4444" font-weight="bold">✗</text>
<circle cx="1092.0" cy="325" r="17" fill="#FECACA" stroke="#EF4444" stroke-width="2"/>
<text x="1092.0" y="331" text-anchor="middle" font-size="14" font-weight="bold" fill="#991B1B" font-family="Arial">3</text>
<text x="1108.0" y="317" font-size="12" fill="#EF4444" font-weight="bold">✗</text>
<circle cx="1128.0" cy="145" r="17" fill="#FECACA" stroke="#EF4444" stroke-width="2"/>
<text x="1128.0" y="151" text-anchor="middle" font-size="14" font-weight="bold" fill="#991B1B" font-family="Arial">1</text>
<text x="1144.0" y="137" font-size="12" fill="#EF4444" font-weight="bold">✗</text>
<circle cx="1164.0" cy="145" r="17" fill="#FECACA" stroke="#EF4444" stroke-width="2"/>
<text x="1164.0" y="151" text-anchor="middle" font-size="14" font-weight="bold" fill="#991B1B" font-family="Arial">2</text>
<text x="1180.0" y="137" font-size="12" fill="#EF4444" font-weight="bold">✗</text>
<circle cx="1200.0" cy="145" r="17" fill="#FECACA" stroke="#EF4444" stroke-width="2"/>
<text x="1200.0" y="151" text-anchor="middle" font-size="14" font-weight="bold" fill="#991B1B" font-family="Arial">3</text>
<text x="1216.0" y="137" font-size="12" fill="#EF4444" font-weight="bold">✗</text>
<circle cx="1452.0" cy="52" r="17" fill="#22C55E" stroke="#1e3a8a" stroke-width="2"/>
<text x="1452.0" y="58" text-anchor="middle" font-size="14" font-weight="bold" fill="white" font-family="Arial">3</text>
<circle cx="1344.0" cy="145" r="17" fill="#3B82F6" stroke="#1e3a8a" stroke-width="2"/>
<text x="1344.0" y="151" text-anchor="middle" font-size="14" font-weight="bold" fill="white" font-family="Arial">0</text>
<circle cx="1236.0" cy="238" r="17" fill="#FECACA" stroke="#EF4444" stroke-width="2"/>
<text x="1236.0" y="244" text-anchor="middle" font-size="14" font-weight="bold" fill="#991B1B" font-family="Arial">0</text>
<text x="1252.0" y="230" font-size="12" fill="#EF4444" font-weight="bold">✗</text>
<circle cx="1272.0" cy="238" r="17" fill="#FECACA" stroke="#EF4444" stroke-width="2"/>
<text x="1272.0" y="244" text-anchor="middle" font-size="14" font-weight="bold" fill="#991B1B" font-family="Arial">1</text>
<text x="1288.0" y="230" font-size="12" fill="#EF4444" font-weight="bold">✗</text>
<circle cx="1362.0" cy="238" r="17" fill="#F97316" stroke="#1e3a8a" stroke-width="2"/>
<text x="1362.0" y="244" text-anchor="middle" font-size="14" font-weight="bold" fill="white" font-family="Arial">2</text>
<circle cx="1308.0" cy="325" r="17" fill="#FECACA" stroke="#EF4444" stroke-width="2"/>
<text x="1308.0" y="331" text-anchor="middle" font-size="14" font-weight="bold" fill="#991B1B" font-family="Arial">0</text>
<text x="1324.0" y="317" font-size="12" fill="#EF4444" font-weight="bold">✗</text>
<circle cx="1344.0" cy="325" r="17" fill="#FECACA" stroke="#EF4444" stroke-width="2"/>
<text x="1344.0" y="331" text-anchor="middle" font-size="14" font-weight="bold" fill="#991B1B" font-family="Arial">1</text>
<text x="1360.0" y="317" font-size="12" fill="#EF4444" font-weight="bold">✗</text>
<circle cx="1380.0" cy="325" r="17" fill="#FECACA" stroke="#EF4444" stroke-width="2"/>
<text x="1380.0" y="331" text-anchor="middle" font-size="14" font-weight="bold" fill="#991B1B" font-family="Arial">2</text>
<text x="1396.0" y="317" font-size="12" fill="#EF4444" font-weight="bold">✗</text>
<circle cx="1416.0" cy="325" r="17" fill="#FECACA" stroke="#EF4444" stroke-width="2"/>
<text x="1416.0" y="331" text-anchor="middle" font-size="14" font-weight="bold" fill="#991B1B" font-family="Arial">3</text>
<text x="1432.0" y="317" font-size="12" fill="#EF4444" font-weight="bold">✗</text>
<circle cx="1452.0" cy="238" r="17" fill="#FECACA" stroke="#EF4444" stroke-width="2"/>
<text x="1452.0" y="244" text-anchor="middle" font-size="14" font-weight="bold" fill="#991B1B" font-family="Arial">3</text>
<text x="1468.0" y="230" font-size="12" fill="#EF4444" font-weight="bold">✗</text>
<circle cx="1542.0" cy="145" r="17" fill="#8B5CF6" stroke="#1e3a8a" stroke-width="2"/>
<text x="1542.0" y="151" text-anchor="middle" font-size="14" font-weight="bold" fill="white" font-family="Arial">1</text>
<circle cx="1488.0" cy="238" r="17" fill="#FECACA" stroke="#EF4444" stroke-width="2"/>
<text x="1488.0" y="244" text-anchor="middle" font-size="14" font-weight="bold" fill="#991B1B" font-family="Arial">0</text>
<text x="1504.0" y="230" font-size="12" fill="#EF4444" font-weight="bold">✗</text>
<circle cx="1524.0" cy="238" r="17" fill="#FECACA" stroke="#EF4444" stroke-width="2"/>
<text x="1524.0" y="244" text-anchor="middle" font-size="14" font-weight="bold" fill="#991B1B" font-family="Arial">1</text>
<text x="1540.0" y="230" font-size="12" fill="#EF4444" font-weight="bold">✗</text>
<circle cx="1560.0" cy="238" r="17" fill="#FECACA" stroke="#EF4444" stroke-width="2"/>
<text x="1560.0" y="244" text-anchor="middle" font-size="14" font-weight="bold" fill="#991B1B" font-family="Arial">2</text>
<text x="1576.0" y="230" font-size="12" fill="#EF4444" font-weight="bold">✗</text>
<circle cx="1596.0" cy="238" r="17" fill="#FECACA" stroke="#EF4444" stroke-width="2"/>
<text x="1596.0" y="244" text-anchor="middle" font-size="14" font-weight="bold" fill="#991B1B" font-family="Arial">3</text>
<text x="1612.0" y="230" font-size="12" fill="#EF4444" font-weight="bold">✗</text>
<circle cx="1632.0" cy="145" r="17" fill="#FECACA" stroke="#EF4444" stroke-width="2"/>
<text x="1632.0" y="151" text-anchor="middle" font-size="14" font-weight="bold" fill="#991B1B" font-family="Arial">2</text>
<text x="1648.0" y="137" font-size="12" fill="#EF4444" font-weight="bold">✗</text>
<circle cx="1668.0" cy="145" r="17" fill="#FECACA" stroke="#EF4444" stroke-width="2"/>
<text x="1668.0" y="151" text-anchor="middle" font-size="14" font-weight="bold" fill="#991B1B" font-family="Arial">3</text>
<text x="1684.0" y="137" font-size="12" fill="#EF4444" font-weight="bold">✗</text>
<circle cx="19" cy="367" r="9" fill="#3B82F6" stroke="#888" stroke-width="1.5"/>
<text x="34" y="372" font-size="12" fill="#334155" font-family="Arial">有效節點</text>
<circle cx="139" cy="367" r="9" fill="#FECACA" stroke="#888" stroke-width="1.5"/>
<text x="154" y="372" font-size="12" fill="#334155" font-family="Arial">剪枝（衝突）</text>
<circle cx="259" cy="367" r="9" fill="#FBBF24" stroke="#888" stroke-width="1.5"/>
<text x="274" y="372" font-size="12" fill="#334155" font-family="Arial">找到解</text>
</svg>