<svg xmlns="http://www.w3.org/2000/svg" width="720" height="530">
<text x="360" y="26" text-anchor="middle" font-size="17" font-weight="bold" fill="#1e293b" font-family="Arial">兩陣列合併過程</text>
<rect x="0" y="46" width="720" height="76" fill="#F8FAFC"/>
<text x="40" y="54" font-size="13" font-weight="bold" fill="#475569" font-family="Arial">A</text>
<rect x="42" y="62" width="48" height="44" fill="#5B9BD5" stroke="#64748B" stroke-width="1.5" rx="7"/>
<text x="66" y="91" text-anchor="middle" font-size="18" font-weight="bold" fill="white" font-family="Arial">10</text>
<rect x="94" y="62" width="48" height="44" fill="#5B9BD5" stroke="#64748B" stroke-width="1.5" rx="7"/>
<text x="118" y="91" text-anchor="middle" font-size="18" font-weight="bold" fill="white" font-family="Arial">15</text>
<rect x="146" y="62" width="48" height="44" fill="#5B9BD5" stroke="#64748B" stroke-width="1.5" rx="7"/>
<text x="170" y="91" text-anchor="middle" font-size="18" font-weight="bold" fill="white" font-family="Arial">45</text>
<rect x="198" y="62" width="48" height="44" fill="#5B9BD5" stroke="#64748B" stroke-width="1.5" rx="7"/>
<text x="222" y="91" text-anchor="middle" font-size="18" font-weight="bold" fill="white" font-family="Arial">60</text>
<text x="278" y="54" font-size="13" font-weight="bold" fill="#475569" font-family="Arial">B</text>
<rect x="280" y="62" width="48" height="44" fill="#22C55E" stroke="#64748B" stroke-width="1.5" rx="7"/>
<text x="304" y="91" text-anchor="middle" font-size="18" font-weight="bold" fill="white" font-family="Arial">8</text>
<rect x="332" y="62" width="48" height="44" fill="#22C55E" stroke="#64748B" stroke-width="1.5" rx="7"/>
<text x="356" y="91" text-anchor="middle" font-size="18" font-weight="bold" fill="white" font-family="Arial">25</text>
<text x="412" y="70" font-size="13" font-weight="bold" fill="#475569" font-family="Arial">C</text>
<text x="10" y="118" font-size="12" fill="#64748B" font-family="Arial">比較 A[0]=10 與 B[0]=8，8較小，取出 B[0]</text>
<rect x="0" y="126" width="720" height="76" fill="#F0FDF4"/>
<text x="40" y="134" font-size="13" font-weight="bold" fill="#475569" font-family="Arial">A</text>
<rect x="42" y="142" width="48" height="44" fill="#5B9BD5" stroke="#64748B" stroke-width="1.5" rx="7"/>
<text x="66" y="171" text-anchor="middle" font-size="18" font-weight="bold" fill="white" font-family="Arial">10</text>
<rect x="94" y="142" width="48" height="44" fill="#5B9BD5" stroke="#64748B" stroke-width="1.5" rx="7"/>
<text x="118" y="171" text-anchor="middle" font-size="18" font-weight="bold" fill="white" font-family="Arial">15</text>
<rect x="146" y="142" width="48" height="44" fill="#5B9BD5" stroke="#64748B" stroke-width="1.5" rx="7"/>
<text x="170" y="171" text-anchor="middle" font-size="18" font-weight="bold" fill="white" font-family="Arial">45</text>
<rect x="198" y="142" width="48" height="44" fill="#5B9BD5" stroke="#64748B" stroke-width="1.5" rx="7"/>
<text x="222" y="171" text-anchor="middle" font-size="18" font-weight="bold" fill="white" font-family="Arial">60</text>
<text x="278" y="134" font-size="13" font-weight="bold" fill="#475569" font-family="Arial">B</text>
<rect x="280" y="142" width="48" height="44" fill="#CBD5E1" stroke="#64748B" stroke-width="1.5" rx="7"/>
<text x="304" y="171" text-anchor="middle" font-size="18" font-weight="bold" fill="#94A3B8" font-family="Arial">8</text>
<rect x="332" y="142" width="48" height="44" fill="#22C55E" stroke="#64748B" stroke-width="1.5" rx="7"/>
<text x="356" y="171" text-anchor="middle" font-size="18" font-weight="bold" fill="white" font-family="Arial">25</text>
<text x="412" y="150" font-size="13" font-weight="bold" fill="#475569" font-family="Arial">C</text>
<rect x="414" y="142" width="48" height="44" fill="#8B5CF6" stroke="#6D28D9" stroke-width="1.5" rx="7"/>
<text x="438" y="171" text-anchor="middle" font-size="18" font-weight="bold" fill="white" font-family="Arial">8</text>
<text x="10" y="198" font-size="12" fill="#64748B" font-family="Arial">比較 A[0]=10 與 B[1]=25，10較小，取出 A[0]</text>
<rect x="0" y="206" width="720" height="76" fill="#F8FAFC"/>
<text x="40" y="214" font-size="13" font-weight="bold" fill="#475569" font-family="Arial">A</text>
<rect x="42" y="222" width="48" height="44" fill="#CBD5E1" stroke="#64748B" stroke-width="1.5" rx="7"/>
<text x="66" y="251" text-anchor="middle" font-size="18" font-weight="bold" fill="#94A3B8" font-family="Arial">10</text>
<rect x="94" y="222" width="48" height="44" fill="#5B9BD5" stroke="#64748B" stroke-width="1.5" rx="7"/>
<text x="118" y="251" text-anchor="middle" font-size="18" font-weight="bold" fill="white" font-family="Arial">15</text>
<rect x="146" y="222" width="48" height="44" fill="#5B9BD5" stroke="#64748B" stroke-width="1.5" rx="7"/>
<text x="170" y="251" text-anchor="middle" font-size="18" font-weight="bold" fill="white" font-family="Arial">45</text>
<rect x="198" y="222" width="48" height="44" fill="#5B9BD5" stroke="#64748B" stroke-width="1.5" rx="7"/>
<text x="222" y="251" text-anchor="middle" font-size="18" font-weight="bold" fill="white" font-family="Arial">60</text>
<text x="278" y="214" font-size="13" font-weight="bold" fill="#475569" font-family="Arial">B</text>
<rect x="280" y="222" width="48" height="44" fill="#CBD5E1" stroke="#64748B" stroke-width="1.5" rx="7"/>
<text x="304" y="251" text-anchor="middle" font-size="18" font-weight="bold" fill="#94A3B8" font-family="Arial">8</text>
<rect x="332" y="222" width="48" height="44" fill="#22C55E" stroke="#64748B" stroke-width="1.5" rx="7"/>
<text x="356" y="251" text-anchor="middle" font-size="18" font-weight="bold" fill="white" font-family="Arial">25</text>
<text x="412" y="230" font-size="13" font-weight="bold" fill="#475569" font-family="Arial">C</text>
<rect x="414" y="222" width="48" height="44" fill="#8B5CF6" stroke="#6D28D9" stroke-width="1.5" rx="7"/>
<text x="438" y="251" text-anchor="middle" font-size="18" font-weight="bold" fill="white" font-family="Arial">8</text>
<rect x="466" y="222" width="48" height="44" fill="#8B5CF6" stroke="#6D28D9" stroke-width="1.5" rx="7"/>
<text x="490" y="251" text-anchor="middle" font-size="18" font-weight="bold" fill="white" font-family="Arial">10</text>
<text x="10" y="278" font-size="12" fill="#64748B" font-family="Arial">比較 A[1]=15 與 B[1]=25，15較小，取出 A[1]</text>
<rect x="0" y="286" width="720" height="76" fill="#F0FDF4"/>
<text x="40" y="294" font-size="13" font-weight="bold" fill="#475569" font-family="Arial">A</text>
<rect x="42" y="302" width="48" height="44" fill="#CBD5E1" stroke="#64748B" stroke-width="1.5" rx="7"/>
<text x="66" y="331" text-anchor="middle" font-size="18" font-weight="bold" fill="#94A3B8" font-family="Arial">10</text>
<rect x="94" y="302" width="48" height="44" fill="#CBD5E1" stroke="#64748B" stroke-width="1.5" rx="7"/>
<text x="118" y="331" text-anchor="middle" font-size="18" font-weight="bold" fill="#94A3B8" font-family="Arial">15</text>
<rect x="146" y="302" width="48" height="44" fill="#5B9BD5" stroke="#64748B" stroke-width="1.5" rx="7"/>
<text x="170" y="331" text-anchor="middle" font-size="18" font-weight="bold" fill="white" font-family="Arial">45</text>
<rect x="198" y="302" width="48" height="44" fill="#5B9BD5" stroke="#64748B" stroke-width="1.5" rx="7"/>
<text x="222" y="331" text-anchor="middle" font-size="18" font-weight="bold" fill="white" font-family="Arial">60</text>
<text x="278" y="294" font-size="13" font-weight="bold" fill="#475569" font-family="Arial">B</text>
<rect x="280" y="302" width="48" height="44" fill="#CBD5E1" stroke="#64748B" stroke-width="1.5" rx="7"/>
<text x="304" y="331" text-anchor="middle" font-size="18" font-weight="bold" fill="#94A3B8" font-family="Arial">8</text>
<rect x="332" y="302" width="48" height="44" fill="#22C55E" stroke="#64748B" stroke-width="1.5" rx="7"/>
<text x="356" y="331" text-anchor="middle" font-size="18" font-weight="bold" fill="white" font-family="Arial">25</text>
<text x="412" y="310" font-size="13" font-weight="bold" fill="#475569" font-family="Arial">C</text>
<rect x="414" y="302" width="48" height="44" fill="#8B5CF6" stroke="#6D28D9" stroke-width="1.5" rx="7"/>
<text x="438" y="331" text-anchor="middle" font-size="18" font-weight="bold" fill="white" font-family="Arial">8</text>
<rect x="466" y="302" width="48" height="44" fill="#8B5CF6" stroke="#6D28D9" stroke-width="1.5" rx="7"/>
<text x="490" y="331" text-anchor="middle" font-size="18" font-weight="bold" fill="white" font-family="Arial">10</text>
<rect x="518" y="302" width="48" height="44" fill="#8B5CF6" stroke="#6D28D9" stroke-width="1.5" rx="7"/>
<text x="542" y="331" text-anchor="middle" font-size="18" font-weight="bold" fill="white" font-family="Arial">15</text>
<text x="10" y="358" font-size="12" fill="#64748B" font-family="Arial">比較 A[2]=45 與 B[1]=25，25較小，取出 B[1]</text>
<rect x="0" y="366" width="720" height="76" fill="#F8FAFC"/>
<text x="40" y="374" font-size="13" font-weight="bold" fill="#475569" font-family="Arial">A</text>
<rect x="42" y="382" width="48" height="44" fill="#CBD5E1" stroke="#64748B" stroke-width="1.5" rx="7"/>
<text x="66" y="411" text-anchor="middle" font-size="18" font-weight="bold" fill="#94A3B8" font-family="Arial">10</text>
<rect x="94" y="382" width="48" height="44" fill="#CBD5E1" stroke="#64748B" stroke-width="1.5" rx="7"/>
<text x="118" y="411" text-anchor="middle" font-size="18" font-weight="bold" fill="#94A3B8" font-family="Arial">15</text>
<rect x="146" y="382" width="48" height="44" fill="#5B9BD5" stroke="#64748B" stroke-width="1.5" rx="7"/>
<text x="170" y="411" text-anchor="middle" font-size="18" font-weight="bold" fill="white" font-family="Arial">45</text>
<rect x="198" y="382" width="48" height="44" fill="#5B9BD5" stroke="#64748B" stroke-width="1.5" rx="7"/>
<text x="222" y="411" text-anchor="middle" font-size="18" font-weight="bold" fill="white" font-family="Arial">60</text>
<text x="278" y="374" font-size="13" font-weight="bold" fill="#475569" font-family="Arial">B</text>
<rect x="280" y="382" width="48" height="44" fill="#CBD5E1" stroke="#64748B" stroke-width="1.5" rx="7"/>
<text x="304" y="411" text-anchor="middle" font-size="18" font-weight="bold" fill="#94A3B8" font-family="Arial">8</text>
<rect x="332" y="382" width="48" height="44" fill="#CBD5E1" stroke="#64748B" stroke-width="1.5" rx="7"/>
<text x="356" y="411" text-anchor="middle" font-size="18" font-weight="bold" fill="#94A3B8" font-family="Arial">25</text>
<text x="412" y="390" font-size="13" font-weight="bold" fill="#475569" font-family="Arial">C</text>
<rect x="414" y="382" width="48" height="44" fill="#8B5CF6" stroke="#6D28D9" stroke-width="1.5" rx="7"/>
<text x="438" y="411" text-anchor="middle" font-size="18" font-weight="bold" fill="white" font-family="Arial">8</text>
<rect x="466" y="382" width="48" height="44" fill="#8B5CF6" stroke="#6D28D9" stroke-width="1.5" rx="7"/>
<text x="490" y="411" text-anchor="middle" font-size="18" font-weight="bold" fill="white" font-family="Arial">10</text>
<rect x="518" y="382" width="48" height="44" fill="#8B5CF6" stroke="#6D28D9" stroke-width="1.5" rx="7"/>
<text x="542" y="411" text-anchor="middle" font-size="18" font-weight="bold" fill="white" font-family="Arial">15</text>
<rect x="570" y="382" width="48" height="44" fill="#8B5CF6" stroke="#6D28D9" stroke-width="1.5" rx="7"/>
<text x="594" y="411" text-anchor="middle" font-size="18" font-weight="bold" fill="white" font-family="Arial">25</text>
<text x="10" y="438" font-size="12" fill="#64748B" font-family="Arial">B 已取完，將 A 剩餘元素全部抄入 C</text>
<text x="360" y="472" text-anchor="middle" font-size="15" font-weight="bold" fill="#059669" font-family="Arial">合併完成：C = [8, 10, 15, 25, 45, 60]</text>
</svg>